<?xml version="1.0" encoding="UTF-8" standalone="no"?>
<svg
   xmlns:dc="http://purl.org/dc/elements/1.1/"
   xmlns:cc="http://creativecommons.org/ns#"
   xmlns:rdf="http://www.w3.org/1999/02/22-rdf-syntax-ns#"
   xmlns:svg="http://www.w3.org/2000/svg"
   xmlns="http://www.w3.org/2000/svg"
   xmlns:sodipodi="http://sodipodi.sourceforge.net/DTD/sodipodi-0.dtd"
   xmlns:inkscape="http://www.inkscape.org/namespaces/inkscape"
   width="462.82608mm"
   height="263.98831mm"
   viewBox="0 0 462.82609 263.98831"
   version="1.1"
   id="svg2"
   inkscape:version="0.91 r13725"
   sodipodi:docname="Gelboxlaser.svg">
  <metadata
     id="metadata86">
    <rdf:RDF>
      <cc:Work
         rdf:about="">
        <dc:format>image/svg+xml</dc:format>
        <dc:type
           rdf:resource="http://purl.org/dc/dcmitype/StillImage" />
        <dc:title></dc:title>
      </cc:Work>
    </rdf:RDF>
  </metadata>
  <defs
     id="defs84" />
  <sodipodi:namedview
     pagecolor="#ffffff"
     bordercolor="#666666"
     borderopacity="1"
     objecttolerance="10"
     gridtolerance="10"
     guidetolerance="10"
     inkscape:pageopacity="0"
     inkscape:pageshadow="2"
     inkscape:window-width="1283"
     inkscape:window-height="798"
     id="namedview82"
     showgrid="false"
     inkscape:zoom="0.060110343"
     inkscape:cx="674.65045"
     inkscape:cy="-970.79224"
     inkscape:window-x="123"
     inkscape:window-y="23"
     inkscape:window-maximized="0"
     inkscape:current-layer="svg2"
     fit-margin-top="10"
     fit-margin-right="10"
     fit-margin-left="10"
     fit-margin-bottom="10"
     inkscape:document-units="mm" />
  <desc
     id="desc4">Output from Flights of Ideas SVG Sketchup Plugin</desc>
  <path
     id="face0-cut"
     style="fill:none;stroke:#0000ff;stroke-width:1;stroke-linecap:round;stroke-linejoin:round;stroke-miterlimit:4;stroke-dasharray:none"
     d="m 86.14476,234.28549 -40,0 0,3 -3,0 0,6 114,0 0,-9 -15,0 0,3 -3,0 0,-3 -43,0 0,3 -10,0 0,-3"
     inkscape:connector-curvature="0" />
  <path
     id="face1-cut"
     style="fill:none;stroke:#0000ff;stroke-width:1;stroke-linecap:round;stroke-linejoin:round;stroke-miterlimit:4;stroke-dasharray:none"
     d="m 192.81287,121.0657 0,-10 -3,0 0,20 9,0 0,-15 -3,0 0,5 -3,0"
     inkscape:connector-curvature="0" />
  <path
     id="face2-cut"
     style="fill:none;stroke:#0000ff;stroke-width:1;stroke-linecap:round;stroke-linejoin:round;stroke-miterlimit:4;stroke-dasharray:none"
     d="m 160.49999,167.39101 36.00001,0 0,66.00003 -36.00001,0 0,-3 -113.99999,0 0,3 -6,0 0,15 -30,0 0,-81.00003 36,0 0,28.00003 113.99999,0 0,-28.00003 m -143.99998,46.00003 0,-20 -3.00001,0 0,20 3.00001,0 M 43.5,188.39103 l 0,-5 -3,0 0,5 3,0 m 22,10.00001 -10,0 0,3 10,0 0,-3 m 76,3 9.99999,0 0,-3 -9.99999,0 0,3 m 24.99999,-13.00001 0,-5 -3,0 0,5 3,0 m 27.00001,5.00001 -3,0 0,20 3,0 0,-20 m -167.99999,-20.00003 10,0 0,-3 -10,0 0,3 m 149.99998,0 10.00001,0 0,-3 -10.00001,0 0,3 m -150.64703,72.41485 0.64705,0.0852 0.64704,-0.0852 0.60296,-0.24975 0.51776,-0.3973 0.3973,-0.51777 0.24975,-0.60295 0.0852,-0.64705 -0.0852,-0.64705 -0.24975,-0.60295 -0.3973,-0.51777 -0.51776,-0.39729 -0.60296,-0.24975 -0.64704,-0.0852 -0.64705,0.0852 -0.60295,0.24975 -0.51777,0.39729 -0.3973,0.51777 -0.24975,0.60295 -0.0852,0.64705 0.0852,0.64705 0.24975,0.60295 0.3973,0.51777 0.51777,0.3973 0.60295,0.24975"
     inkscape:connector-curvature="0" />
  <path
     id="face3-cut"
     style="fill:none;stroke:#0000ff;stroke-width:1;stroke-linecap:round;stroke-linejoin:round;stroke-miterlimit:4;stroke-dasharray:none"
     d="m 54.18359,69.899762 25.99998,0 0,3 3,0 0,108.000008 -3,0 0,3 -28.99998,0 0,-3 3,0 0,-40 -3,0 0,-10.00001 3,0 0,-60.999998"
     inkscape:connector-curvature="0" />
  <path
     id="face4-cut"
     style="fill:none;stroke:#0000ff;stroke-width:1;stroke-linecap:round;stroke-linejoin:round;stroke-miterlimit:4;stroke-dasharray:none"
     d="m 328.4131,187.33453 120,0 0,-10 3,0 0,-5 -3,0 0,-10 -120,0 0,10 -3,0 0,5 3,0 0,10"
     inkscape:connector-curvature="0" />
  <path
     id="face5-cut"
     style="fill:none;stroke:#0000ff;stroke-width:1;stroke-linecap:round;stroke-linejoin:round;stroke-miterlimit:4;stroke-dasharray:none"
     d="m 448.82808,100.09682 -120,0 0,20 -3,0 0,20 3,0 0,20 120,0 0,-20 3,0 0,-20 -3,0 0,-20"
     inkscape:connector-curvature="0" />
  <path
     id="face6-cut"
     style="fill:none;stroke:#0000ff;stroke-width:1;stroke-linecap:round;stroke-linejoin:round;stroke-miterlimit:4;stroke-dasharray:none"
     d="m 329.32609,222.13486 120,0 0,-11 3,0 0,-10 -3,0 0,-12 -120,0 0,8 -3,0 0,10 3,0 0,15"
     inkscape:connector-curvature="0" />
  <path
     id="face7-cut"
     style="fill:none;stroke:#0000ff;stroke-width:1;stroke-linecap:round;stroke-linejoin:round;stroke-miterlimit:4;stroke-dasharray:none"
     d="m 116.97981,71.441272 -25.99999,0 0,3 -3,0 0,107.999998 3,0 0,3 28.99999,0 0,-3 -3,0 0,-40 3,0 0,-10 -3,0 0,-60.999998"
     inkscape:connector-curvature="0" />
  <path
     id="face8-cut"
     style="fill:none;stroke:#0000ff;stroke-width:1;stroke-linecap:round;stroke-linejoin:round;stroke-miterlimit:4;stroke-dasharray:none"
     d="m 328.62928,97.716452 120,0 0,-10 3,0 0,-5 -3,0 0,-10 -120,0 0,10 -3,0 0,5 3,0 0,10"
     inkscape:connector-curvature="0" />
  <path
     id="face9-cut"
     style="fill:none;stroke:#0000ff;stroke-width:1;stroke-linecap:round;stroke-linejoin:round;stroke-miterlimit:4;stroke-dasharray:none"
     d="m 183.89977,120.82178 0,-10 3,0 0,20 -9,0 0,-15 3,0 0,5 3,0"
     inkscape:connector-curvature="0" />
  <path
     id="face10-cut"
     style="fill:none;stroke:#0000ff;stroke-width:1;stroke-linecap:round;stroke-linejoin:round;stroke-miterlimit:4;stroke-dasharray:none"
     d="m 181.19321,104.02187 0,10 -3,0 0,-19.999998 9,0 0,14.999998 -3,0 0,-5 -3,0"
     inkscape:connector-curvature="0" />
  <path
     id="face11-cut"
     style="fill:none;stroke:#0000ff;stroke-width:1;stroke-linecap:round;stroke-linejoin:round;stroke-miterlimit:4;stroke-dasharray:none"
     d="m 448.06484,11.019742 -120,0 0,20 -3,0 0,20 3,0 0,20 120,0 0,-20 3,0 0,-20 -3,0 0,-20"
     inkscape:connector-curvature="0" />
  <path
     id="face12-cut"
     style="fill:none;stroke:#0000ff;stroke-width:1;stroke-linecap:round;stroke-linejoin:round;stroke-miterlimit:4;stroke-dasharray:none"
     d="m 195.63709,103.98435 0,10 3,0 0,-19.999998 -9,0 0,14.999998 3,0 0,-5 3,0"
     inkscape:connector-curvature="0" />
  <path
     id="face13-cut"
     style="fill:none;stroke:#0000ff;stroke-width:1;stroke-linecap:round;stroke-linejoin:round;stroke-miterlimit:4;stroke-dasharray:none"
     d="m 330.87546,248.5845 0,-6 5,0 0,-18 5,0 0,18 5.00001,0 0,-18 5,0 0,18 5,0 0,-18 5,0 0,18 4.99999,0 0,-18 5,0 0,18 5,0 0,-18 5,0 0,18 5,0 0,-18 5,0 0,18 5,0 0,-18 5,0 0,18 5,0 0,-18 5,0 0,18 5,0 0,-18 5,0 0,18 5,0 0,-18 5,0 0,18 5,0 0,-18 5,0 0,18 4,0 0,6 3,0 0,3 -120,0 0,-3 3,0"
     inkscape:connector-curvature="0" />
  <path
     id="face14-cut"
     style="fill:none;stroke:#0000ff;stroke-width:1;stroke-linecap:round;stroke-linejoin:round;stroke-miterlimit:4;stroke-dasharray:none"
     d="m 203.84434,124.49993 120,0 0,-3 -3,0 0,-107.999998 3,0 0,-3 -120,0 0,3 3,0 0,107.999998 -3,0 0,3"
     inkscape:connector-curvature="0" />
  <path
     id="face15-cut"
     style="fill:none;stroke:#0000ff;stroke-width:1;stroke-linecap:round;stroke-linejoin:round;stroke-miterlimit:4;stroke-dasharray:none"
     d="m 121.31911,23.895412 40,0 0,-3 3,0 0,-6 -114,0 0,9 15,0 0,-3 3,0 0,3 43,0 0,-3 10,0 0,3"
     inkscape:connector-curvature="0" />
  <path
     id="face16-cut"
     style="fill:none;stroke:#0000ff;stroke-width:1;stroke-linecap:round;stroke-linejoin:round;stroke-miterlimit:4;stroke-dasharray:none"
     d="m 198.86996,10.547582 -29.99999,0 0,15 -6,0 0,3 -114,0 0,-3 -35.99999,0 0,66 35.99999,0 0,-28 114,0 0,28 35.99999,0 0,-81 m -6,55 0,-20 3,0 0,20 -3,0 m -26.99999,10 0,-5 3,0 0,5 -3,0 m -12,-15 -10,0 0,-3 10,0 0,3 m -96,-3 10,0 0,3 -10,0 0,-3 m -15,18 0,-5 3,0 0,5 -3,0 m -23.99999,-10 -3,0 0,-20 3,0 0,20 m 154.99998,20 10,0 0,3 -10,0 0,-3 m -149.99998,0 9.99999,0 0,3 -9.99999,0 0,-3 m 159.35293,-72.41481 0.64705,-0.0852 0.64705,0.0852 0.60295,0.24975 0.51777,0.3973 0.3973,0.51776 0.24975,0.60296 0.0852,0.64704 -0.0852,0.64705 -0.24975,0.60295 -0.3973,0.51777 -0.51777,0.3973 -0.60295,0.24975 -0.64705,0.0852 -0.64705,-0.0852 -0.60295,-0.24975 -0.51777,-0.3973 -0.39729,-0.51777 -0.24975,-0.60295 -0.0852,-0.64705 0.0852,-0.64704 0.24975,-0.60296 0.39729,-0.51776 0.51777,-0.3973 0.60295,-0.24975"
     inkscape:connector-curvature="0" />
  <path
     id="face17-cut"
     style="fill:none;stroke:#0000ff;stroke-width:1;stroke-linecap:round;stroke-linejoin:round;stroke-miterlimit:4;stroke-dasharray:none"
     d="m 324.02215,127.48826 -120,0 0,15 -3,0 0,10 3,0 0,76 -3,0 0,10 3,0 0,15 120,0 0,-15 3,0 0,-10 -3,0 0,-76 3,0 0,-10 -3,0 0,-15"
     inkscape:connector-curvature="0" />
  <path
     id="face18-cut"
     style="fill:none;stroke:#0000ff;stroke-width:1;stroke-linecap:round;stroke-linejoin:round;stroke-miterlimit:4;stroke-dasharray:none"
     d="m 157.40802,188.81833 0,-120.000008 -11,0 0,-3 -10,0 0,3 -12,0 0,120.000008 8,0 0,3 10,0 0,-3 15,0"
     inkscape:connector-curvature="0" />
  <path
     id="face0-interior"
     style="fill:none;stroke:#ff0000;stroke-width:1;stroke-linecap:round;stroke-linejoin:round;stroke-miterlimit:4;stroke-dasharray:none"
     d="m 624.38039,331.26909 m 0,-40 m -3,0 m 0,-3 m -6,0 m 0,114 m 9,0 m 0,-15 m -3,0 m 0,-3 m 3,0 m 0,-43 m -3,0 m 0,-10"
     inkscape:connector-curvature="0" />
  <path
     id="face1-interior"
     style="fill:none;stroke:#ff0000;stroke-width:1;stroke-linecap:round;stroke-linejoin:round;stroke-miterlimit:4;stroke-dasharray:none"
     d="m 181.69635,117.78464 m -10,0 m 0,3 m 20,0 m 0,-9 m -15,0 m 0,3 m 5,0"
     inkscape:connector-curvature="0" />
  <path
     id="face16-interior"
     style="fill:none;stroke:#ff0000;stroke-width:1;stroke-linecap:round;stroke-linejoin:round;stroke-miterlimit:4;stroke-dasharray:none"
     d="m 615.38039,1470.2691 m 0,30 m 15,0 m 0,6 m 3,0 m 0,114 m -3,0 m 0,36 m 66.00004,0 m 0,-36 m -28,0 m 0,-114 m 28,0 m 0,-36 m -26,6 m -20,0 m 0,-3 m 20,0 m 10,30 m -5,0 m 0,-3 m 5,0 m -15,15 m 0,10 m -3,0 m 0,-10 m 0,96 m 0,-10 m 3,0 m 0,10 m 15,15 m -5,0 m 0,-3 m 5,0 m -10,27 m 0,3 m -20,0 m 0,-3 m 40,-155 m 0,-10 m 3,0 m 0,10 m -3,150 m 0,-10 m 3,0 m 0,10 m -75.41485,-159.353 m -0.0852,-0.647 m 0.0852,-0.647 m 0.24975,-0.603 m 0.3973,-0.5178 m 0.51777,-0.3973 m 0.60295,-0.2497 m 0.64705,-0.085 m 0.64705,0.085 m 0.60295,0.2497 m 0.51777,0.3973 m 0.39729,0.5178 m 0.24976,0.603 m 0.0852,0.6472 m -0.0852,0.647 m -0.24975,0.603 m -0.3973,0.5178 m -0.51777,0.3973 m -0.60295,0.2497 m -0.64705,0.085 m -0.64705,-0.085 m -0.60295,-0.2499 m -0.51777,-0.3973 m -0.39729,-0.5178"
     inkscape:connector-curvature="0" />
  <path
     id="face17-interior"
     style="fill:none;stroke:#ff0000;stroke-width:1;stroke-linecap:round;stroke-linejoin:round;stroke-miterlimit:4;stroke-dasharray:none"
     d="m 738.38043,1666.2691 m -120.00004,0 m 0,15 m -3,0 m 0,10 m 3,0 m 0,76 m -3,0 m 0,10 m 3,0 m 0,15 m 120.00004,0 m 0,-15 m 3,0 m 0,-10 m -3,0 m 0,-76 m 3,0 m 0,-10 m -3,0"
     inkscape:connector-curvature="0" />
  <path
     id="face18-interior"
     style="fill:none;stroke:#ff0000;stroke-width:1;stroke-linecap:round;stroke-linejoin:round;stroke-miterlimit:4;stroke-dasharray:none"
     d="m 738.38043,1802.2691 m -120.00004,0 m 0,11 m -3,0 m 0,10 m 3,0 m 0,12 m 120.00004,0 m 0,-8 m 3,0 m 0,-10 m -3,0"
     inkscape:connector-curvature="0" />
  <path
     id="path44"
     style="fill:none;stroke:#00ff00;stroke-width:1;stroke-linecap:round;stroke-linejoin:round;stroke-miterlimit:4;stroke-dasharray:none"
     d="m 624.38039,331.26909 m 0,-40 m -3,0 m 0,-3 m -6,0 m 0,114 m 9,0 m 0,-15 m -3,0 m 0,-3 m 3,0 m 0,-43 m -3,0 m 0,-10"
     inkscape:connector-curvature="0" />
  <path
     id="path46"
     style="fill:none;stroke:#00ff00;stroke-width:1;stroke-linecap:round;stroke-linejoin:round;stroke-miterlimit:4;stroke-dasharray:none"
     d="m 181.69635,117.78464 m -10,0 m 0,3 m 20,0 m 0,-9 m -15,0 m 0,3 m 5,0"
     inkscape:connector-curvature="0" />
  <path
     id="path76"
     style="fill:none;stroke:#00ff00;stroke-width:1;stroke-linecap:round;stroke-linejoin:round;stroke-miterlimit:4;stroke-dasharray:none"
     d="m 615.38039,1470.2691 m 0,30 m 15,0 m 0,6 m 3,0 m 0,114 m -3,0 m 0,36 m 66.00004,0 m 0,-36 m -28,0 m 0,-114 m 28,0 m 0,-36 m -26,6 m -20,0 m 0,-3 m 20,0 m 10,30 m -5,0 m 0,-3 m 5,0 m -15,15 m 0,10 m -3,0 m 0,-10 m 0,96 m 0,-10 m 3,0 m 0,10 m 15,15 m -5,0 m 0,-3 m 5,0 m -10,27 m 0,3 m -20,0 m 0,-3 m 40,-155 m 0,-10 m 3,0 m 0,10 m -3,150 m 0,-10 m 3,0 m 0,10 m -75.41485,-159.353 m -0.0852,-0.647 m 0.0852,-0.647 m 0.24975,-0.603 m 0.3973,-0.5178 m 0.51777,-0.3973 m 0.60295,-0.2497 m 0.64705,-0.085 m 0.64705,0.085 m 0.60295,0.2497 m 0.51777,0.3973 m 0.39729,0.5178 m 0.24976,0.603 m 0.0852,0.6472 m -0.0852,0.647 m -0.24975,0.603 m -0.3973,0.5178 m -0.51777,0.3973 m -0.60295,0.2497 m -0.64705,0.085 m -0.64705,-0.085 m -0.60295,-0.2499 m -0.51777,-0.3973 m -0.39729,-0.5178"
     inkscape:connector-curvature="0" />
  <path
     id="path78"
     style="fill:none;stroke:#00ff00;stroke-width:1;stroke-linecap:round;stroke-linejoin:round;stroke-miterlimit:4;stroke-dasharray:none"
     d="m 738.38043,1666.2691 m -120.00004,0 m 0,15 m -3,0 m 0,10 m 3,0 m 0,76 m -3,0 m 0,10 m 3,0 m 0,15 m 120.00004,0 m 0,-15 m 3,0 m 0,-10 m -3,0 m 0,-76 m 3,0 m 0,-10 m -3,0"
     inkscape:connector-curvature="0" />
  <path
     id="path80"
     style="fill:none;stroke:#00ff00;stroke-width:1;stroke-linecap:round;stroke-linejoin:round;stroke-miterlimit:4;stroke-dasharray:none"
     d="m 738.38043,1802.2691 m -120.00004,0 m 0,11 m -3,0 m 0,10 m 3,0 m 0,12 m 120.00004,0 m 0,-8 m 3,0 m 0,-10 m -3,0"
     inkscape:connector-curvature="0" />
</svg>
