<?xml version="1.0" standalone="no"?>
<!DOCTYPE svg PUBLIC "-//W3C//DTD SVG 1.1//EN" "http://www.w3.org/Graphics/SVG/1.1/DTD/svg11.dtd">
<svg width="146.00000000000006mm" height="1567.0mm"
 viewBox="0 0 146.00000000000006 1567.0"
 xmlns="http://www.w3.org/2000/svg" version="1.1"
 xmlns:xlink="http://www.w3.org/1999/xlink">
<desc>Output from Flights of Ideas SVG Sketchup Plugin</desc>

  <path id="face0-cut"
 style="fill:none;stroke:#0000FF;stroke-width:1;stroke-miterlimit:4;stroke-dasharray:none;stroke-linejoin:round;stroke-linecap:round"
        d="M 19.0,52.99999999999915 L 19.0,12.999999999999986 L 16.0,12.999999999999986 L 16.0,10.0 L 10.0,10.0 L 10.0,124.00000000000001 L 19.0,124.00000000000001 L 19.0,108.99999999999828 L 16.0,108.99999999999827 L 16.0,105.99999999999828 L 19.0,105.99999999999828 L 19.0,62.999999999999176 L 16.0,62.999999999999176 L 16.0,52.99999999999915 L 19.0,52.99999999999915 "
  />
  <path id="face1-cut"
 style="fill:none;stroke:#0000FF;stroke-width:1;stroke-miterlimit:4;stroke-dasharray:none;stroke-linejoin:round;stroke-linecap:round"
        d="M 20.0,140.0 L 10.0,140.0 L 10.0,142.99999999999994 L 30.0,142.99999999999994 L 30.0,134.0 L 15.0,134.0 L 15.0,137.00000000000006 L 20.0,137.00000000000006 L 20.0,140.0 "
  />
  <path id="face2-cut"
 style="fill:none;stroke:#0000FF;stroke-width:1;stroke-miterlimit:4;stroke-dasharray:none;stroke-linejoin:round;stroke-linecap:round"
        d="M 10.0,302.9999999999999 L 10.0,338.99999999999994 L 76.0,338.99999999999994 L 76.0,302.9999999999999 L 73.0,302.9999999999999 L 73.0,188.99999999999994 L 76.0,188.99999999999994 L 76.0,182.99999999999994 L 91.0,182.99999999999994 L 90.99999999999989,152.99999999999994 L 10.0,152.99999999999994 L 10.0,188.99999999999994 L 38.00000000000006,188.99999999999994 L 38.00000000000006,302.9999999999999 L 10.0,302.9999999999999 M 56.0,158.99999999999994 L 36.00000000000006,158.99999999999994 L 35.99999999999994,155.99999999999994 L 56.0,155.99999999999994 L 56.0,158.99999999999994 M 31.000000000000114,185.99999999999994 L 26.000000000000057,185.9999999999999 L 26.000000000000057,182.99999999999994 L 31.000000000000114,182.99999999999994 L 31.000000000000114,185.99999999999994 M 41.0,207.99999999999994 L 41.0,197.99999999999994 L 43.99999999999994,197.99999999999994 L 43.99999999999994,207.99999999999994 L 41.0,207.99999999999994 M 43.99999999999994,283.9999999999999 L 43.99999999999994,293.9999999999999 L 41.0,293.9999999999999 L 41.0,283.9999999999999 L 43.99999999999994,283.9999999999999 M 31.0,308.9999999999999 L 26.000000000000057,308.9999999999999 L 26.000000000000057,305.9999999999999 L 31.000000000000114,305.9999999999999 L 31.0,308.9999999999999 M 35.99999999999994,335.9999999999999 L 35.99999999999994,332.9999999999999 L 56.0,332.9999999999999 L 56.0,335.9999999999999 L 35.99999999999994,335.9999999999999 M 16.0,167.99999999999997 L 16.0,177.99999999999991 L 12.999999999999943,177.99999999999994 L 13.000000000000057,167.99999999999997 L 16.0,167.99999999999997 M 16.0,317.99999999999994 L 16.0,327.9999999999999 L 13.000000000000057,327.9999999999999 L 13.000000000000057,317.99999999999994 L 16.0,317.99999999999994 M 88.41481456572274,167.35295238724365 L 88.5,167.99999999999997 L 88.41481456572274,168.64704761275624 L 88.1650635094611,169.24999999999997 L 87.76776695296633,169.76776695296633 L 87.25,170.16506350946102 L 86.6470476127563,170.4148145657226 L 86.0,170.49999999999994 L 85.3529523872437,170.4148145657226 L 84.75,170.16506350946102 L 84.23223304703367,169.76776695296633 L 83.8349364905389,169.24999999999994 L 83.58518543427738,168.64704761275624 L 83.5,167.99999999999997 L 83.58518543427738,167.35295238724362 L 83.8349364905389,166.74999999999994 L 84.23223304703367,166.2322330470336 L 84.75,165.83493649053887 L 85.3529523872437,165.58518543427726 L 86.0,165.49999999999997 L 86.6470476127563,165.58518543427726 L 87.25,165.83493649053887 L 87.76776695296633,166.23223304703356 L 88.1650635094611,166.74999999999994 L 88.41481456572274,167.35295238724365 "
  />
  <path id="face3-cut"
 style="fill:none;stroke:#0000FF;stroke-width:1;stroke-miterlimit:4;stroke-dasharray:none;stroke-linejoin:round;stroke-linecap:round"
        d="M 13.000000000000114,462.9999999999999 L 39.000000000000114,462.9999999999999 L 39.000000000000114,459.99999999999994 L 42.00000000000017,459.9999999999999 L 42.00000000000017,351.99999999999994 L 39.000000000000114,351.99999999999994 L 39.000000000000114,348.99999999999994 L 10.000000000000114,348.99999999999994 L 10.000000000000114,351.99999999999994 L 13.000000000000114,351.99999999999994 L 13.000000000000114,391.9999999999991 L 10.0,391.9999999999991 L 10.0,401.99999999999915 L 13.000000000000057,401.99999999999915 L 13.000000000000114,462.9999999999999 "
  />
  <path id="face4-cut"
 style="fill:none;stroke:#0000FF;stroke-width:1;stroke-miterlimit:4;stroke-dasharray:none;stroke-linejoin:round;stroke-linecap:round"
        d="M 13.0,497.9999999999999 L 133.0,497.9999999999999 L 133.0,487.99999999999983 L 135.99999999999994,487.99999999999983 L 135.99999999999994,483.0 L 133.0,482.9999999999999 L 133.0,472.99999999999994 L 13.0,472.9999999999999 L 13.0,482.9999999999999 L 10.0,482.9999999999999 L 10.0,487.9999999999999 L 13.0,487.9999999999999 L 13.0,497.9999999999999 "
  />
  <path id="face5-cut"
 style="fill:none;stroke:#0000FF;stroke-width:1;stroke-miterlimit:4;stroke-dasharray:none;stroke-linejoin:round;stroke-linecap:round"
        d="M 133.0,507.9999999999999 L 12.999999999999993,507.9999999999999 L 12.999999999999993,527.9999999999998 L 10.0,527.9999999999998 L 10.0,547.9999999999998 L 12.999999999999993,548.0 L 13.000000000000014,567.9999999999999 L 133.0,567.9999999999998 L 133.0,547.9999999999998 L 136.0,547.9999999999998 L 136.0,527.9999999999998 L 133.0,527.9999999999998 L 133.0,507.9999999999999 "
  />
  <path id="face6-cut"
 style="fill:none;stroke:#0000FF;stroke-width:1;stroke-miterlimit:4;stroke-dasharray:none;stroke-linejoin:round;stroke-linecap:round"
        d="M 133.0,577.9999999999999 L 12.999999999999993,577.9999999999999 L 12.999999999999993,589.0 L 10.0,589.0 L 10.0,598.9999999999998 L 12.999999999999993,598.9999999999999 L 12.999999999999993,610.9999999999999 L 133.0,610.9999999999998 L 133.0,602.9999999999998 L 136.0,602.9999999999998 L 136.0,592.9999999999999 L 133.0,592.9999999999999 L 133.0,577.9999999999999 "
  />
  <path id="face7-cut"
 style="fill:none;stroke:#0000FF;stroke-width:1;stroke-miterlimit:4;stroke-dasharray:none;stroke-linejoin:round;stroke-linecap:round"
        d="M 13.00000000000017,734.9999999999999 L 39.000000000000114,734.9999999999999 L 39.000000000000114,731.9999999999999 L 42.00000000000017,731.9999999999998 L 42.00000000000017,624.0 L 39.00000000000017,623.9999999999999 L 39.000000000000114,620.9999999999999 L 10.00000000000017,620.9999999999999 L 10.00000000000017,623.9999999999999 L 13.00000000000017,623.9999999999999 L 13.00000000000017,663.9999999999991 L 10.000000000000057,663.9999999999991 L 10.0,673.9999999999991 L 13.000000000000114,673.9999999999991 L 13.00000000000017,734.9999999999999 "
  />
  <path id="face8-cut"
 style="fill:none;stroke:#0000FF;stroke-width:1;stroke-miterlimit:4;stroke-dasharray:none;stroke-linejoin:round;stroke-linecap:round"
        d="M 13.0,769.9999999999999 L 133.0,769.9999999999999 L 133.0,759.9999999999998 L 136.0,759.9999999999998 L 136.0,755.0 L 133.0,754.9999999999999 L 133.0,744.9999999999999 L 13.0,744.9999999999999 L 13.0,754.9999999999999 L 10.0,754.9999999999999 L 10.000000000000057,759.9999999999999 L 13.0,759.9999999999999 L 13.0,769.9999999999999 "
  />
  <path id="face9-cut"
 style="fill:none;stroke:#0000FF;stroke-width:1;stroke-miterlimit:4;stroke-dasharray:none;stroke-linejoin:round;stroke-linecap:round"
        d="M 20.0,785.9999999999999 L 10.0,785.9999999999999 L 10.0,788.9999999999998 L 30.0,788.9999999999998 L 30.0,779.9999999999999 L 14.999999999999943,779.9999999999999 L 14.999999999999943,782.9999999999999 L 20.0,782.9999999999999 L 20.0,785.9999999999999 "
  />
  <path id="face10-cut"
 style="fill:none;stroke:#0000FF;stroke-width:1;stroke-miterlimit:4;stroke-dasharray:none;stroke-linejoin:round;stroke-linecap:round"
        d="M 20.0,804.9999999999998 L 10.0,804.9999999999998 L 10.0,807.9999999999998 L 30.0,807.9999999999998 L 30.0,798.9999999999998 L 14.999999999999943,798.9999999999998 L 14.999999999999943,801.9999999999998 L 20.0,801.9999999999998 L 20.0,804.9999999999998 "
  />
  <path id="face11-cut"
 style="fill:none;stroke:#0000FF;stroke-width:1;stroke-miterlimit:4;stroke-dasharray:none;stroke-linejoin:round;stroke-linecap:round"
        d="M 133.0,817.9999999999998 L 13.0,817.9999999999998 L 13.0,837.9999999999998 L 10.0,837.9999999999995 L 10.0,857.9999999999998 L 13.0,857.9999999999998 L 13.000000000000057,877.9999999999998 L 133.0,877.9999999999998 L 133.0,857.9999999999998 L 136.00000000000006,857.9999999999998 L 135.99999999999994,837.9999999999998 L 133.0,837.9999999999998 L 133.0,817.9999999999998 "
  />
  <path id="face12-cut"
 style="fill:none;stroke:#0000FF;stroke-width:1;stroke-miterlimit:4;stroke-dasharray:none;stroke-linejoin:round;stroke-linecap:round"
        d="M 20.0,893.9999999999998 L 10.0,893.9999999999998 L 10.0,896.9999999999998 L 30.0,896.9999999999998 L 30.0,887.9999999999998 L 14.999999999999943,887.9999999999998 L 14.999999999999943,890.9999999999998 L 20.0,890.9999999999998 L 20.0,893.9999999999998 "
  />
  <path id="face13-cut"
 style="fill:none;stroke:#0000FF;stroke-width:1;stroke-miterlimit:4;stroke-dasharray:none;stroke-linejoin:round;stroke-linecap:round"
        d="M 127.0,930.9999999999998 L 127.0,924.9999999999998 L 121.99999999999994,924.9999999999998 L 122.00000000000006,906.9999999999998 L 117.0,906.9999999999998 L 117.0,924.9999999999998 L 112.00000000000006,924.9999999999998 L 112.00000000000006,906.9999999999998 L 107.00000000000006,906.9999999999998 L 107.00000000000006,924.9999999999998 L 102.0,924.9999999999998 L 102.0,906.9999999999998 L 97.00000000000006,906.9999999999998 L 97.00000000000006,924.9999999999998 L 92.0,924.9999999999998 L 92.0,906.9999999999998 L 87.0,906.9999999999998 L 87.0,924.9999999999998 L 82.00000000000006,924.9999999999998 L 82.00000000000006,906.9999999999998 L 77.0,906.9999999999998 L 77.0,924.9999999999998 L 72.0,924.9999999999998 L 72.0,906.9999999999998 L 67.0,906.9999999999998 L 67.0,924.9999999999998 L 62.0,924.9999999999998 L 62.0,906.9999999999998 L 57.0,906.9999999999998 L 57.0,924.9999999999998 L 52.0,924.9999999999998 L 52.0,906.9999999999998 L 47.0,906.9999999999998 L 47.0,924.9999999999998 L 42.0,924.9999999999999 L 42.0,906.9999999999998 L 37.0,906.9999999999999 L 37.0,924.9999999999997 L 32.0,924.9999999999995 L 32.0,906.9999999999998 L 27.0,906.9999999999998 L 27.0,924.9999999999995 L 22.0,924.9999999999998 L 22.0,906.9999999999998 L 17.0,906.9999999999998 L 17.0,925.0 L 13.000000000000057,924.9999999999995 L 13.0,930.9999999999998 L 10.0,930.9999999999998 L 10.0,934.0 L 129.99999999999994,933.9999999999998 L 129.99999999999994,930.9999999999998 L 127.0,930.9999999999998 "
  />
  <path id="face14-cut"
 style="fill:none;stroke:#0000FF;stroke-width:1;stroke-miterlimit:4;stroke-dasharray:none;stroke-linejoin:round;stroke-linecap:round"
        d="M 10.0,1058.0 L 130.00000000000006,1058.0 L 130.00000000000006,1055.0000000000007 L 127.00000000000006,1054.9999999999998 L 127.00000000000006,947.0 L 130.00000000000006,947.0 L 130.00000000000006,944.0 L 10.0,944.0 L 10.0,947.0 L 13.0,947.0 L 13.0,1055.0 L 10.0,1055.0 L 10.0,1058.0 "
  />
  <path id="face15-cut"
 style="fill:none;stroke:#0000FF;stroke-width:1;stroke-miterlimit:4;stroke-dasharray:none;stroke-linejoin:round;stroke-linecap:round"
        d="M 18.999999999999943,1110.999999999999 L 18.999999999999943,1071.0 L 15.999999999999943,1071.0 L 15.999999999999943,1068.0 L 10.0,1068.0 L 10.0,1182.0 L 18.999999999999943,1182.0 L 18.999999999999943,1166.9999999999982 L 16.0,1166.9999999999982 L 16.0,1163.9999999999982 L 18.999999999999943,1163.9999999999982 L 18.999999999999943,1120.999999999999 L 15.999999999999943,1120.999999999999 L 15.999999999999943,1110.999999999999 L 18.999999999999943,1110.999999999999 "
  />
  <path id="face16-cut"
 style="fill:none;stroke:#0000FF;stroke-width:1;stroke-miterlimit:4;stroke-dasharray:none;stroke-linejoin:round;stroke-linecap:round"
        d="M 10.0,1192.0 L 10.0,1222.0 L 25.0,1222.0 L 25.0,1228.0 L 28.0,1228.0 L 28.0,1342.0 L 25.0,1342.0 L 25.0,1378.0 L 91.00000000000006,1378.0 L 91.00000000000006,1342.0 L 63.00000000000006,1342.0 L 63.0,1228.0 L 91.00000000000006,1228.0 L 90.99999999999994,1192.0 L 10.0,1192.0 M 65.0,1198.0 L 44.99999999999994,1198.0 L 44.99999999999994,1195.0 L 65.0,1195.0 L 65.0,1198.0 M 75.0,1225.0 L 69.99999999999994,1225.0 L 69.99999999999994,1222.0 L 75.0,1222.0 L 75.0,1225.0 M 60.0,1237.0 L 60.0,1247.0 L 57.0,1247.0 L 57.0,1237.0 L 60.0,1237.0 M 57.0,1333.0 L 57.0,1323.0 L 60.0,1323.0 L 60.0,1333.0 L 57.0,1333.0 M 75.0,1348.0 L 69.99999999999994,1348.0 L 69.99999999999994,1345.0 L 75.0,1345.0 L 75.0,1348.0 M 65.0,1372.0 L 65.0,1375.0 L 44.99999999999994,1375.0 L 44.99999999999994,1372.0 L 65.0,1372.0 M 85.0,1217.0 L 85.0,1207.0 L 88.0,1207.0 L 88.0,1217.0 L 85.0,1217.0 M 85.0,1367.0 L 85.0,1357.0 L 88.0,1357.0 L 87.99999999999994,1367.0 L 85.0,1367.0 M 12.58518543427732,1207.6470476127563 L 12.5,1207.0 L 12.58518543427732,1206.3529523872437 L 12.834936490538894,1205.75 L 13.232233047033674,1205.2322330470336 L 13.75,1204.834936490539 L 14.352952387243704,1204.5851854342773 L 15.0,1204.5 L 15.647047612756296,1204.5851854342773 L 16.25,1204.834936490539 L 16.767766952966383,1205.2322330470336 L 17.165063509461106,1205.75 L 17.41481456572268,1206.3529523872437 L 17.500000000000057,1207.0 L 17.41481456572268,1207.6470476127563 L 17.165063509461106,1208.25 L 16.767766952966383,1208.7677669529662 L 16.25,1209.165063509461 L 15.647047612756296,1209.4148145657227 L 15.0,1209.5 L 14.352952387243704,1209.4148145657227 L 13.75,1209.165063509461 L 13.232233047033674,1208.7677669529662 L 12.834936490538894,1208.25 L 12.58518543427732,1207.6470476127563 "
  />
  <path id="face17-cut"
 style="fill:none;stroke:#0000FF;stroke-width:1;stroke-miterlimit:4;stroke-dasharray:none;stroke-linejoin:round;stroke-linecap:round"
        d="M 133.0,1388.0 L 13.000000000000014,1388.0 L 13.000000000000014,1403.0 L 10.000000000000014,1403.0 L 10.000000000000014,1413.0 L 13.000000000000014,1413.0 L 12.999999999999986,1489.0 L 10.0,1489.0 L 10.000000000000014,1499.0 L 13.000000000000014,1499.0 L 13.000000000000043,1514.0 L 133.0,1514.0 L 133.0,1499.0 L 136.0,1499.0 L 136.0,1489.0 L 133.0,1489.0 L 133.0,1413.0 L 136.0,1413.0 L 136.0,1403.0 L 133.0,1403.0 L 133.0,1388.0 "
  />
  <path id="face18-cut"
 style="fill:none;stroke:#0000FF;stroke-width:1;stroke-miterlimit:4;stroke-dasharray:none;stroke-linejoin:round;stroke-linecap:round"
        d="M 133.0,1524.0 L 12.999999999999943,1524.0 L 12.999999999999943,1535.0000000000002 L 10.0,1535.0000000000002 L 10.0,1545.0 L 12.999999999999943,1545.0 L 12.999999999999943,1557.0 L 133.0,1557.0 L 133.0,1549.0 L 135.99999999999994,1549.0 L 135.99999999999994,1539.0 L 133.0,1539.0 L 133.0,1524.0 "
  />
  <path id="face0-interior"
 style="fill:none;stroke:#FF0000;stroke-width:1;stroke-miterlimit:4;stroke-dasharray:none;stroke-linejoin:round;stroke-linecap:round"
        d="M 19.0,52.99999999999915 M 19.0,12.999999999999986 M 16.0,12.999999999999986 M 16.0,10.0 M 10.0,10.0 M 10.0,124.00000000000001 M 19.0,124.00000000000001 M 19.0,108.99999999999828 M 16.0,108.99999999999827 M 16.0,105.99999999999828 M 19.0,105.99999999999828 M 19.0,62.999999999999176 M 16.0,62.999999999999176 M 16.0,52.99999999999915 "
  />
  <path id="face1-interior"
 style="fill:none;stroke:#FF0000;stroke-width:1;stroke-miterlimit:4;stroke-dasharray:none;stroke-linejoin:round;stroke-linecap:round"
        d="M 20.0,140.0 M 10.0,140.0 M 10.0,142.99999999999994 M 30.0,142.99999999999994 M 30.0,134.0 M 15.0,134.0 M 15.0,137.00000000000006 M 20.0,137.00000000000006 "
  />
  <path id="face2-interior"
 style="fill:none;stroke:#FF0000;stroke-width:1;stroke-miterlimit:4;stroke-dasharray:none;stroke-linejoin:round;stroke-linecap:round"
        d="M 10.0,302.9999999999999 M 10.0,338.99999999999994 M 76.0,338.99999999999994 M 76.0,302.9999999999999 M 73.0,302.9999999999999 M 73.0,188.99999999999994 M 76.0,188.99999999999994 M 76.0,182.99999999999994 M 91.0,182.99999999999994 M 90.99999999999989,152.99999999999994 M 10.0,152.99999999999994 M 10.0,188.99999999999994 M 38.00000000000006,188.99999999999994 M 38.00000000000006,302.9999999999999 M 56.0,158.99999999999994 M 36.00000000000006,158.99999999999994 M 35.99999999999994,155.99999999999994 M 56.0,155.99999999999994 M 31.000000000000114,185.99999999999994 M 26.000000000000057,185.9999999999999 M 26.000000000000057,182.99999999999994 M 31.000000000000114,182.99999999999994 M 41.0,207.99999999999994 M 41.0,197.99999999999994 M 43.99999999999994,197.99999999999994 M 43.99999999999994,207.99999999999994 M 43.99999999999994,283.9999999999999 M 43.99999999999994,293.9999999999999 M 41.0,293.9999999999999 M 41.0,283.9999999999999 M 31.0,308.9999999999999 M 26.000000000000057,308.9999999999999 M 26.000000000000057,305.9999999999999 M 31.000000000000114,305.9999999999999 M 35.99999999999994,335.9999999999999 M 35.99999999999994,332.9999999999999 M 56.0,332.9999999999999 M 56.0,335.9999999999999 M 16.0,167.99999999999997 M 16.0,177.99999999999991 M 12.999999999999943,177.99999999999994 M 13.000000000000057,167.99999999999997 M 16.0,317.99999999999994 M 16.0,327.9999999999999 M 13.000000000000057,327.9999999999999 M 13.000000000000057,317.99999999999994 M 88.41481456572274,167.35295238724365 M 88.5,167.99999999999997 M 88.41481456572274,168.64704761275624 M 88.1650635094611,169.24999999999997 M 87.76776695296633,169.76776695296633 M 87.25,170.16506350946102 M 86.6470476127563,170.4148145657226 M 86.0,170.49999999999994 M 85.3529523872437,170.4148145657226 M 84.75,170.16506350946102 M 84.23223304703367,169.76776695296633 M 83.8349364905389,169.24999999999994 M 83.58518543427738,168.64704761275624 M 83.5,167.99999999999997 M 83.58518543427738,167.35295238724362 M 83.8349364905389,166.74999999999994 M 84.23223304703367,166.2322330470336 M 84.75,165.83493649053887 M 85.3529523872437,165.58518543427726 M 86.0,165.49999999999997 M 86.6470476127563,165.58518543427726 M 87.25,165.83493649053887 M 87.76776695296633,166.23223304703356 M 88.1650635094611,166.74999999999994 "
  />
  <path id="face3-interior"
 style="fill:none;stroke:#FF0000;stroke-width:1;stroke-miterlimit:4;stroke-dasharray:none;stroke-linejoin:round;stroke-linecap:round"
        d="M 13.000000000000114,462.9999999999999 M 39.000000000000114,462.9999999999999 M 39.000000000000114,459.99999999999994 M 42.00000000000017,459.9999999999999 M 42.00000000000017,351.99999999999994 M 39.000000000000114,351.99999999999994 M 39.000000000000114,348.99999999999994 M 10.000000000000114,348.99999999999994 M 10.000000000000114,351.99999999999994 M 13.000000000000114,351.99999999999994 M 13.000000000000114,391.9999999999991 M 10.0,391.9999999999991 M 10.0,401.99999999999915 M 13.000000000000057,401.99999999999915 "
  />
  <path id="face4-interior"
 style="fill:none;stroke:#FF0000;stroke-width:1;stroke-miterlimit:4;stroke-dasharray:none;stroke-linejoin:round;stroke-linecap:round"
        d="M 13.0,497.9999999999999 M 133.0,497.9999999999999 M 133.0,487.99999999999983 M 135.99999999999994,487.99999999999983 M 135.99999999999994,483.0 M 133.0,482.9999999999999 M 133.0,472.99999999999994 M 13.0,472.9999999999999 M 13.0,482.9999999999999 M 10.0,482.9999999999999 M 10.0,487.9999999999999 M 13.0,487.9999999999999 "
  />
  <path id="face5-interior"
 style="fill:none;stroke:#FF0000;stroke-width:1;stroke-miterlimit:4;stroke-dasharray:none;stroke-linejoin:round;stroke-linecap:round"
        d="M 133.0,507.9999999999999 M 12.999999999999993,507.9999999999999 M 12.999999999999993,527.9999999999998 M 10.0,527.9999999999998 M 10.0,547.9999999999998 M 12.999999999999993,548.0 M 13.000000000000014,567.9999999999999 M 133.0,567.9999999999998 M 133.0,547.9999999999998 M 136.0,547.9999999999998 M 136.0,527.9999999999998 M 133.0,527.9999999999998 "
  />
  <path id="face6-interior"
 style="fill:none;stroke:#FF0000;stroke-width:1;stroke-miterlimit:4;stroke-dasharray:none;stroke-linejoin:round;stroke-linecap:round"
        d="M 133.0,577.9999999999999 M 12.999999999999993,577.9999999999999 M 12.999999999999993,589.0 M 10.0,589.0 M 10.0,598.9999999999998 M 12.999999999999993,598.9999999999999 M 12.999999999999993,610.9999999999999 M 133.0,610.9999999999998 M 133.0,602.9999999999998 M 136.0,602.9999999999998 M 136.0,592.9999999999999 M 133.0,592.9999999999999 "
  />
  <path id="face7-interior"
 style="fill:none;stroke:#FF0000;stroke-width:1;stroke-miterlimit:4;stroke-dasharray:none;stroke-linejoin:round;stroke-linecap:round"
        d="M 13.00000000000017,734.9999999999999 M 39.000000000000114,734.9999999999999 M 39.000000000000114,731.9999999999999 M 42.00000000000017,731.9999999999998 M 42.00000000000017,624.0 M 39.00000000000017,623.9999999999999 M 39.000000000000114,620.9999999999999 M 10.00000000000017,620.9999999999999 M 10.00000000000017,623.9999999999999 M 13.00000000000017,623.9999999999999 M 13.00000000000017,663.9999999999991 M 10.000000000000057,663.9999999999991 M 10.0,673.9999999999991 M 13.000000000000114,673.9999999999991 "
  />
  <path id="face8-interior"
 style="fill:none;stroke:#FF0000;stroke-width:1;stroke-miterlimit:4;stroke-dasharray:none;stroke-linejoin:round;stroke-linecap:round"
        d="M 13.0,769.9999999999999 M 133.0,769.9999999999999 M 133.0,759.9999999999998 M 136.0,759.9999999999998 M 136.0,755.0 M 133.0,754.9999999999999 M 133.0,744.9999999999999 M 13.0,744.9999999999999 M 13.0,754.9999999999999 M 10.0,754.9999999999999 M 10.000000000000057,759.9999999999999 M 13.0,759.9999999999999 "
  />
  <path id="face9-interior"
 style="fill:none;stroke:#FF0000;stroke-width:1;stroke-miterlimit:4;stroke-dasharray:none;stroke-linejoin:round;stroke-linecap:round"
        d="M 20.0,785.9999999999999 M 10.0,785.9999999999999 M 10.0,788.9999999999998 M 30.0,788.9999999999998 M 30.0,779.9999999999999 M 14.999999999999943,779.9999999999999 M 14.999999999999943,782.9999999999999 M 20.0,782.9999999999999 "
  />
  <path id="face10-interior"
 style="fill:none;stroke:#FF0000;stroke-width:1;stroke-miterlimit:4;stroke-dasharray:none;stroke-linejoin:round;stroke-linecap:round"
        d="M 20.0,804.9999999999998 M 10.0,804.9999999999998 M 10.0,807.9999999999998 M 30.0,807.9999999999998 M 30.0,798.9999999999998 M 14.999999999999943,798.9999999999998 M 14.999999999999943,801.9999999999998 M 20.0,801.9999999999998 "
  />
  <path id="face11-interior"
 style="fill:none;stroke:#FF0000;stroke-width:1;stroke-miterlimit:4;stroke-dasharray:none;stroke-linejoin:round;stroke-linecap:round"
        d="M 133.0,817.9999999999998 M 13.0,817.9999999999998 M 13.0,837.9999999999998 M 10.0,837.9999999999995 M 10.0,857.9999999999998 M 13.0,857.9999999999998 M 13.000000000000057,877.9999999999998 M 133.0,877.9999999999998 M 133.0,857.9999999999998 M 136.00000000000006,857.9999999999998 M 135.99999999999994,837.9999999999998 M 133.0,837.9999999999998 "
  />
  <path id="face12-interior"
 style="fill:none;stroke:#FF0000;stroke-width:1;stroke-miterlimit:4;stroke-dasharray:none;stroke-linejoin:round;stroke-linecap:round"
        d="M 20.0,893.9999999999998 M 10.0,893.9999999999998 M 10.0,896.9999999999998 M 30.0,896.9999999999998 M 30.0,887.9999999999998 M 14.999999999999943,887.9999999999998 M 14.999999999999943,890.9999999999998 M 20.0,890.9999999999998 "
  />
  <path id="face13-interior"
 style="fill:none;stroke:#FF0000;stroke-width:1;stroke-miterlimit:4;stroke-dasharray:none;stroke-linejoin:round;stroke-linecap:round"
        d="M 127.0,930.9999999999998 M 127.0,924.9999999999998 M 121.99999999999994,924.9999999999998 M 122.00000000000006,906.9999999999998 M 117.0,906.9999999999998 M 117.0,924.9999999999998 M 112.00000000000006,924.9999999999998 M 112.00000000000006,906.9999999999998 M 107.00000000000006,906.9999999999998 M 107.00000000000006,924.9999999999998 M 102.0,924.9999999999998 M 102.0,906.9999999999998 M 97.00000000000006,906.9999999999998 M 97.00000000000006,924.9999999999998 M 92.0,924.9999999999998 M 92.0,906.9999999999998 M 87.0,906.9999999999998 M 87.0,924.9999999999998 M 82.00000000000006,924.9999999999998 M 82.00000000000006,906.9999999999998 M 77.0,906.9999999999998 M 77.0,924.9999999999998 M 72.0,924.9999999999998 M 72.0,906.9999999999998 M 67.0,906.9999999999998 M 67.0,924.9999999999998 M 62.0,924.9999999999998 M 62.0,906.9999999999998 M 57.0,906.9999999999998 M 57.0,924.9999999999998 M 52.0,924.9999999999998 M 52.0,906.9999999999998 M 47.0,906.9999999999998 M 47.0,924.9999999999998 M 42.0,924.9999999999999 M 42.0,906.9999999999998 M 37.0,906.9999999999999 M 37.0,924.9999999999997 M 32.0,924.9999999999995 M 32.0,906.9999999999998 M 27.0,906.9999999999998 M 27.0,924.9999999999995 M 22.0,924.9999999999998 M 22.0,906.9999999999998 M 17.0,906.9999999999998 M 17.0,925.0 M 13.000000000000057,924.9999999999995 M 13.0,930.9999999999998 M 10.0,930.9999999999998 M 10.0,934.0 M 129.99999999999994,933.9999999999998 M 129.99999999999994,930.9999999999998 "
  />
  <path id="face14-interior"
 style="fill:none;stroke:#FF0000;stroke-width:1;stroke-miterlimit:4;stroke-dasharray:none;stroke-linejoin:round;stroke-linecap:round"
        d="M 10.0,1058.0 M 130.00000000000006,1058.0 M 130.00000000000006,1055.0000000000007 M 127.00000000000006,1054.9999999999998 M 127.00000000000006,947.0 M 130.00000000000006,947.0 M 130.00000000000006,944.0 M 10.0,944.0 M 10.0,947.0 M 13.0,947.0 M 13.0,1055.0 M 10.0,1055.0 "
  />
  <path id="face15-interior"
 style="fill:none;stroke:#FF0000;stroke-width:1;stroke-miterlimit:4;stroke-dasharray:none;stroke-linejoin:round;stroke-linecap:round"
        d="M 18.999999999999943,1110.999999999999 M 18.999999999999943,1071.0 M 15.999999999999943,1071.0 M 15.999999999999943,1068.0 M 10.0,1068.0 M 10.0,1182.0 M 18.999999999999943,1182.0 M 18.999999999999943,1166.9999999999982 M 16.0,1166.9999999999982 M 16.0,1163.9999999999982 M 18.999999999999943,1163.9999999999982 M 18.999999999999943,1120.999999999999 M 15.999999999999943,1120.999999999999 M 15.999999999999943,1110.999999999999 "
  />
  <path id="face16-interior"
 style="fill:none;stroke:#FF0000;stroke-width:1;stroke-miterlimit:4;stroke-dasharray:none;stroke-linejoin:round;stroke-linecap:round"
        d="M 10.0,1192.0 M 10.0,1222.0 M 25.0,1222.0 M 25.0,1228.0 M 28.0,1228.0 M 28.0,1342.0 M 25.0,1342.0 M 25.0,1378.0 M 91.00000000000006,1378.0 M 91.00000000000006,1342.0 M 63.00000000000006,1342.0 M 63.0,1228.0 M 91.00000000000006,1228.0 M 90.99999999999994,1192.0 M 65.0,1198.0 M 44.99999999999994,1198.0 M 44.99999999999994,1195.0 M 65.0,1195.0 M 75.0,1225.0 M 69.99999999999994,1225.0 M 69.99999999999994,1222.0 M 75.0,1222.0 M 60.0,1237.0 M 60.0,1247.0 M 57.0,1247.0 M 57.0,1237.0 M 57.0,1333.0 M 57.0,1323.0 M 60.0,1323.0 M 60.0,1333.0 M 75.0,1348.0 M 69.99999999999994,1348.0 M 69.99999999999994,1345.0 M 75.0,1345.0 M 65.0,1372.0 M 65.0,1375.0 M 44.99999999999994,1375.0 M 44.99999999999994,1372.0 M 85.0,1217.0 M 85.0,1207.0 M 88.0,1207.0 M 88.0,1217.0 M 85.0,1367.0 M 85.0,1357.0 M 88.0,1357.0 M 87.99999999999994,1367.0 M 12.58518543427732,1207.6470476127563 M 12.5,1207.0 M 12.58518543427732,1206.3529523872437 M 12.834936490538894,1205.75 M 13.232233047033674,1205.2322330470336 M 13.75,1204.834936490539 M 14.352952387243704,1204.5851854342773 M 15.0,1204.5 M 15.647047612756296,1204.5851854342773 M 16.25,1204.834936490539 M 16.767766952966383,1205.2322330470336 M 17.165063509461106,1205.75 M 17.41481456572268,1206.3529523872437 M 17.500000000000057,1207.0 M 17.41481456572268,1207.6470476127563 M 17.165063509461106,1208.25 M 16.767766952966383,1208.7677669529662 M 16.25,1209.165063509461 M 15.647047612756296,1209.4148145657227 M 15.0,1209.5 M 14.352952387243704,1209.4148145657227 M 13.75,1209.165063509461 M 13.232233047033674,1208.7677669529662 M 12.834936490538894,1208.25 "
  />
  <path id="face17-interior"
 style="fill:none;stroke:#FF0000;stroke-width:1;stroke-miterlimit:4;stroke-dasharray:none;stroke-linejoin:round;stroke-linecap:round"
        d="M 133.0,1388.0 M 13.000000000000014,1388.0 M 13.000000000000014,1403.0 M 10.000000000000014,1403.0 M 10.000000000000014,1413.0 M 13.000000000000014,1413.0 M 12.999999999999986,1489.0 M 10.0,1489.0 M 10.000000000000014,1499.0 M 13.000000000000014,1499.0 M 13.000000000000043,1514.0 M 133.0,1514.0 M 133.0,1499.0 M 136.0,1499.0 M 136.0,1489.0 M 133.0,1489.0 M 133.0,1413.0 M 136.0,1413.0 M 136.0,1403.0 M 133.0,1403.0 "
  />
  <path id="face18-interior"
 style="fill:none;stroke:#FF0000;stroke-width:1;stroke-miterlimit:4;stroke-dasharray:none;stroke-linejoin:round;stroke-linecap:round"
        d="M 133.0,1524.0 M 12.999999999999943,1524.0 M 12.999999999999943,1535.0000000000002 M 10.0,1535.0000000000002 M 10.0,1545.0 M 12.999999999999943,1545.0 M 12.999999999999943,1557.0 M 133.0,1557.0 M 133.0,1549.0 M 135.99999999999994,1549.0 M 135.99999999999994,1539.0 M 133.0,1539.0 "
  />
  <path id="face0-interior"
 style="fill:none;stroke:#00FF00;stroke-width:1;stroke-miterlimit:4;stroke-dasharray:none;stroke-linejoin:round;stroke-linecap:round"
        d="M 19.0,52.99999999999915 M 19.0,12.999999999999986 M 16.0,12.999999999999986 M 16.0,10.0 M 10.0,10.0 M 10.0,124.00000000000001 M 19.0,124.00000000000001 M 19.0,108.99999999999828 M 16.0,108.99999999999827 M 16.0,105.99999999999828 M 19.0,105.99999999999828 M 19.0,62.999999999999176 M 16.0,62.999999999999176 M 16.0,52.99999999999915 "
  />
  <path id="face1-interior"
 style="fill:none;stroke:#00FF00;stroke-width:1;stroke-miterlimit:4;stroke-dasharray:none;stroke-linejoin:round;stroke-linecap:round"
        d="M 20.0,140.0 M 10.0,140.0 M 10.0,142.99999999999994 M 30.0,142.99999999999994 M 30.0,134.0 M 15.0,134.0 M 15.0,137.00000000000006 M 20.0,137.00000000000006 "
  />
  <path id="face2-interior"
 style="fill:none;stroke:#00FF00;stroke-width:1;stroke-miterlimit:4;stroke-dasharray:none;stroke-linejoin:round;stroke-linecap:round"
        d="M 10.0,302.9999999999999 M 10.0,338.99999999999994 M 76.0,338.99999999999994 M 76.0,302.9999999999999 M 73.0,302.9999999999999 M 73.0,188.99999999999994 M 76.0,188.99999999999994 M 76.0,182.99999999999994 M 91.0,182.99999999999994 M 90.99999999999989,152.99999999999994 M 10.0,152.99999999999994 M 10.0,188.99999999999994 M 38.00000000000006,188.99999999999994 M 38.00000000000006,302.9999999999999 M 56.0,158.99999999999994 M 36.00000000000006,158.99999999999994 M 35.99999999999994,155.99999999999994 M 56.0,155.99999999999994 M 31.000000000000114,185.99999999999994 M 26.000000000000057,185.9999999999999 M 26.000000000000057,182.99999999999994 M 31.000000000000114,182.99999999999994 M 41.0,207.99999999999994 M 41.0,197.99999999999994 M 43.99999999999994,197.99999999999994 M 43.99999999999994,207.99999999999994 M 43.99999999999994,283.9999999999999 M 43.99999999999994,293.9999999999999 M 41.0,293.9999999999999 M 41.0,283.9999999999999 M 31.0,308.9999999999999 M 26.000000000000057,308.9999999999999 M 26.000000000000057,305.9999999999999 M 31.000000000000114,305.9999999999999 M 35.99999999999994,335.9999999999999 M 35.99999999999994,332.9999999999999 M 56.0,332.9999999999999 M 56.0,335.9999999999999 M 16.0,167.99999999999997 M 16.0,177.99999999999991 M 12.999999999999943,177.99999999999994 M 13.000000000000057,167.99999999999997 M 16.0,317.99999999999994 M 16.0,327.9999999999999 M 13.000000000000057,327.9999999999999 M 13.000000000000057,317.99999999999994 M 88.41481456572274,167.35295238724365 M 88.5,167.99999999999997 M 88.41481456572274,168.64704761275624 M 88.1650635094611,169.24999999999997 M 87.76776695296633,169.76776695296633 M 87.25,170.16506350946102 M 86.6470476127563,170.4148145657226 M 86.0,170.49999999999994 M 85.3529523872437,170.4148145657226 M 84.75,170.16506350946102 M 84.23223304703367,169.76776695296633 M 83.8349364905389,169.24999999999994 M 83.58518543427738,168.64704761275624 M 83.5,167.99999999999997 M 83.58518543427738,167.35295238724362 M 83.8349364905389,166.74999999999994 M 84.23223304703367,166.2322330470336 M 84.75,165.83493649053887 M 85.3529523872437,165.58518543427726 M 86.0,165.49999999999997 M 86.6470476127563,165.58518543427726 M 87.25,165.83493649053887 M 87.76776695296633,166.23223304703356 M 88.1650635094611,166.74999999999994 "
  />
  <path id="face3-interior"
 style="fill:none;stroke:#00FF00;stroke-width:1;stroke-miterlimit:4;stroke-dasharray:none;stroke-linejoin:round;stroke-linecap:round"
        d="M 13.000000000000114,462.9999999999999 M 39.000000000000114,462.9999999999999 M 39.000000000000114,459.99999999999994 M 42.00000000000017,459.9999999999999 M 42.00000000000017,351.99999999999994 M 39.000000000000114,351.99999999999994 M 39.000000000000114,348.99999999999994 M 10.000000000000114,348.99999999999994 M 10.000000000000114,351.99999999999994 M 13.000000000000114,351.99999999999994 M 13.000000000000114,391.9999999999991 M 10.0,391.9999999999991 M 10.0,401.99999999999915 M 13.000000000000057,401.99999999999915 "
  />
  <path id="face4-interior"
 style="fill:none;stroke:#00FF00;stroke-width:1;stroke-miterlimit:4;stroke-dasharray:none;stroke-linejoin:round;stroke-linecap:round"
        d="M 13.0,497.9999999999999 M 133.0,497.9999999999999 M 133.0,487.99999999999983 M 135.99999999999994,487.99999999999983 M 135.99999999999994,483.0 M 133.0,482.9999999999999 M 133.0,472.99999999999994 M 13.0,472.9999999999999 M 13.0,482.9999999999999 M 10.0,482.9999999999999 M 10.0,487.9999999999999 M 13.0,487.9999999999999 "
  />
  <path id="face5-interior"
 style="fill:none;stroke:#00FF00;stroke-width:1;stroke-miterlimit:4;stroke-dasharray:none;stroke-linejoin:round;stroke-linecap:round"
        d="M 133.0,507.9999999999999 M 12.999999999999993,507.9999999999999 M 12.999999999999993,527.9999999999998 M 10.0,527.9999999999998 M 10.0,547.9999999999998 M 12.999999999999993,548.0 M 13.000000000000014,567.9999999999999 M 133.0,567.9999999999998 M 133.0,547.9999999999998 M 136.0,547.9999999999998 M 136.0,527.9999999999998 M 133.0,527.9999999999998 "
  />
  <path id="face6-interior"
 style="fill:none;stroke:#00FF00;stroke-width:1;stroke-miterlimit:4;stroke-dasharray:none;stroke-linejoin:round;stroke-linecap:round"
        d="M 133.0,577.9999999999999 M 12.999999999999993,577.9999999999999 M 12.999999999999993,589.0 M 10.0,589.0 M 10.0,598.9999999999998 M 12.999999999999993,598.9999999999999 M 12.999999999999993,610.9999999999999 M 133.0,610.9999999999998 M 133.0,602.9999999999998 M 136.0,602.9999999999998 M 136.0,592.9999999999999 M 133.0,592.9999999999999 "
  />
  <path id="face7-interior"
 style="fill:none;stroke:#00FF00;stroke-width:1;stroke-miterlimit:4;stroke-dasharray:none;stroke-linejoin:round;stroke-linecap:round"
        d="M 13.00000000000017,734.9999999999999 M 39.000000000000114,734.9999999999999 M 39.000000000000114,731.9999999999999 M 42.00000000000017,731.9999999999998 M 42.00000000000017,624.0 M 39.00000000000017,623.9999999999999 M 39.000000000000114,620.9999999999999 M 10.00000000000017,620.9999999999999 M 10.00000000000017,623.9999999999999 M 13.00000000000017,623.9999999999999 M 13.00000000000017,663.9999999999991 M 10.000000000000057,663.9999999999991 M 10.0,673.9999999999991 M 13.000000000000114,673.9999999999991 "
  />
  <path id="face8-interior"
 style="fill:none;stroke:#00FF00;stroke-width:1;stroke-miterlimit:4;stroke-dasharray:none;stroke-linejoin:round;stroke-linecap:round"
        d="M 13.0,769.9999999999999 M 133.0,769.9999999999999 M 133.0,759.9999999999998 M 136.0,759.9999999999998 M 136.0,755.0 M 133.0,754.9999999999999 M 133.0,744.9999999999999 M 13.0,744.9999999999999 M 13.0,754.9999999999999 M 10.0,754.9999999999999 M 10.000000000000057,759.9999999999999 M 13.0,759.9999999999999 "
  />
  <path id="face9-interior"
 style="fill:none;stroke:#00FF00;stroke-width:1;stroke-miterlimit:4;stroke-dasharray:none;stroke-linejoin:round;stroke-linecap:round"
        d="M 20.0,785.9999999999999 M 10.0,785.9999999999999 M 10.0,788.9999999999998 M 30.0,788.9999999999998 M 30.0,779.9999999999999 M 14.999999999999943,779.9999999999999 M 14.999999999999943,782.9999999999999 M 20.0,782.9999999999999 "
  />
  <path id="face10-interior"
 style="fill:none;stroke:#00FF00;stroke-width:1;stroke-miterlimit:4;stroke-dasharray:none;stroke-linejoin:round;stroke-linecap:round"
        d="M 20.0,804.9999999999998 M 10.0,804.9999999999998 M 10.0,807.9999999999998 M 30.0,807.9999999999998 M 30.0,798.9999999999998 M 14.999999999999943,798.9999999999998 M 14.999999999999943,801.9999999999998 M 20.0,801.9999999999998 "
  />
  <path id="face11-interior"
 style="fill:none;stroke:#00FF00;stroke-width:1;stroke-miterlimit:4;stroke-dasharray:none;stroke-linejoin:round;stroke-linecap:round"
        d="M 133.0,817.9999999999998 M 13.0,817.9999999999998 M 13.0,837.9999999999998 M 10.0,837.9999999999995 M 10.0,857.9999999999998 M 13.0,857.9999999999998 M 13.000000000000057,877.9999999999998 M 133.0,877.9999999999998 M 133.0,857.9999999999998 M 136.00000000000006,857.9999999999998 M 135.99999999999994,837.9999999999998 M 133.0,837.9999999999998 "
  />
  <path id="face12-interior"
 style="fill:none;stroke:#00FF00;stroke-width:1;stroke-miterlimit:4;stroke-dasharray:none;stroke-linejoin:round;stroke-linecap:round"
        d="M 20.0,893.9999999999998 M 10.0,893.9999999999998 M 10.0,896.9999999999998 M 30.0,896.9999999999998 M 30.0,887.9999999999998 M 14.999999999999943,887.9999999999998 M 14.999999999999943,890.9999999999998 M 20.0,890.9999999999998 "
  />
  <path id="face13-interior"
 style="fill:none;stroke:#00FF00;stroke-width:1;stroke-miterlimit:4;stroke-dasharray:none;stroke-linejoin:round;stroke-linecap:round"
        d="M 127.0,930.9999999999998 M 127.0,924.9999999999998 M 121.99999999999994,924.9999999999998 M 122.00000000000006,906.9999999999998 M 117.0,906.9999999999998 M 117.0,924.9999999999998 M 112.00000000000006,924.9999999999998 M 112.00000000000006,906.9999999999998 M 107.00000000000006,906.9999999999998 M 107.00000000000006,924.9999999999998 M 102.0,924.9999999999998 M 102.0,906.9999999999998 M 97.00000000000006,906.9999999999998 M 97.00000000000006,924.9999999999998 M 92.0,924.9999999999998 M 92.0,906.9999999999998 M 87.0,906.9999999999998 M 87.0,924.9999999999998 M 82.00000000000006,924.9999999999998 M 82.00000000000006,906.9999999999998 M 77.0,906.9999999999998 M 77.0,924.9999999999998 M 72.0,924.9999999999998 M 72.0,906.9999999999998 M 67.0,906.9999999999998 M 67.0,924.9999999999998 M 62.0,924.9999999999998 M 62.0,906.9999999999998 M 57.0,906.9999999999998 M 57.0,924.9999999999998 M 52.0,924.9999999999998 M 52.0,906.9999999999998 M 47.0,906.9999999999998 M 47.0,924.9999999999998 M 42.0,924.9999999999999 M 42.0,906.9999999999998 M 37.0,906.9999999999999 M 37.0,924.9999999999997 M 32.0,924.9999999999995 M 32.0,906.9999999999998 M 27.0,906.9999999999998 M 27.0,924.9999999999995 M 22.0,924.9999999999998 M 22.0,906.9999999999998 M 17.0,906.9999999999998 M 17.0,925.0 M 13.000000000000057,924.9999999999995 M 13.0,930.9999999999998 M 10.0,930.9999999999998 M 10.0,934.0 M 129.99999999999994,933.9999999999998 M 129.99999999999994,930.9999999999998 "
  />
  <path id="face14-interior"
 style="fill:none;stroke:#00FF00;stroke-width:1;stroke-miterlimit:4;stroke-dasharray:none;stroke-linejoin:round;stroke-linecap:round"
        d="M 10.0,1058.0 M 130.00000000000006,1058.0 M 130.00000000000006,1055.0000000000007 M 127.00000000000006,1054.9999999999998 M 127.00000000000006,947.0 M 130.00000000000006,947.0 M 130.00000000000006,944.0 M 10.0,944.0 M 10.0,947.0 M 13.0,947.0 M 13.0,1055.0 M 10.0,1055.0 "
  />
  <path id="face15-interior"
 style="fill:none;stroke:#00FF00;stroke-width:1;stroke-miterlimit:4;stroke-dasharray:none;stroke-linejoin:round;stroke-linecap:round"
        d="M 18.999999999999943,1110.999999999999 M 18.999999999999943,1071.0 M 15.999999999999943,1071.0 M 15.999999999999943,1068.0 M 10.0,1068.0 M 10.0,1182.0 M 18.999999999999943,1182.0 M 18.999999999999943,1166.9999999999982 M 16.0,1166.9999999999982 M 16.0,1163.9999999999982 M 18.999999999999943,1163.9999999999982 M 18.999999999999943,1120.999999999999 M 15.999999999999943,1120.999999999999 M 15.999999999999943,1110.999999999999 "
  />
  <path id="face16-interior"
 style="fill:none;stroke:#00FF00;stroke-width:1;stroke-miterlimit:4;stroke-dasharray:none;stroke-linejoin:round;stroke-linecap:round"
        d="M 10.0,1192.0 M 10.0,1222.0 M 25.0,1222.0 M 25.0,1228.0 M 28.0,1228.0 M 28.0,1342.0 M 25.0,1342.0 M 25.0,1378.0 M 91.00000000000006,1378.0 M 91.00000000000006,1342.0 M 63.00000000000006,1342.0 M 63.0,1228.0 M 91.00000000000006,1228.0 M 90.99999999999994,1192.0 M 65.0,1198.0 M 44.99999999999994,1198.0 M 44.99999999999994,1195.0 M 65.0,1195.0 M 75.0,1225.0 M 69.99999999999994,1225.0 M 69.99999999999994,1222.0 M 75.0,1222.0 M 60.0,1237.0 M 60.0,1247.0 M 57.0,1247.0 M 57.0,1237.0 M 57.0,1333.0 M 57.0,1323.0 M 60.0,1323.0 M 60.0,1333.0 M 75.0,1348.0 M 69.99999999999994,1348.0 M 69.99999999999994,1345.0 M 75.0,1345.0 M 65.0,1372.0 M 65.0,1375.0 M 44.99999999999994,1375.0 M 44.99999999999994,1372.0 M 85.0,1217.0 M 85.0,1207.0 M 88.0,1207.0 M 88.0,1217.0 M 85.0,1367.0 M 85.0,1357.0 M 88.0,1357.0 M 87.99999999999994,1367.0 M 12.58518543427732,1207.6470476127563 M 12.5,1207.0 M 12.58518543427732,1206.3529523872437 M 12.834936490538894,1205.75 M 13.232233047033674,1205.2322330470336 M 13.75,1204.834936490539 M 14.352952387243704,1204.5851854342773 M 15.0,1204.5 M 15.647047612756296,1204.5851854342773 M 16.25,1204.834936490539 M 16.767766952966383,1205.2322330470336 M 17.165063509461106,1205.75 M 17.41481456572268,1206.3529523872437 M 17.500000000000057,1207.0 M 17.41481456572268,1207.6470476127563 M 17.165063509461106,1208.25 M 16.767766952966383,1208.7677669529662 M 16.25,1209.165063509461 M 15.647047612756296,1209.4148145657227 M 15.0,1209.5 M 14.352952387243704,1209.4148145657227 M 13.75,1209.165063509461 M 13.232233047033674,1208.7677669529662 M 12.834936490538894,1208.25 "
  />
  <path id="face17-interior"
 style="fill:none;stroke:#00FF00;stroke-width:1;stroke-miterlimit:4;stroke-dasharray:none;stroke-linejoin:round;stroke-linecap:round"
        d="M 133.0,1388.0 M 13.000000000000014,1388.0 M 13.000000000000014,1403.0 M 10.000000000000014,1403.0 M 10.000000000000014,1413.0 M 13.000000000000014,1413.0 M 12.999999999999986,1489.0 M 10.0,1489.0 M 10.000000000000014,1499.0 M 13.000000000000014,1499.0 M 13.000000000000043,1514.0 M 133.0,1514.0 M 133.0,1499.0 M 136.0,1499.0 M 136.0,1489.0 M 133.0,1489.0 M 133.0,1413.0 M 136.0,1413.0 M 136.0,1403.0 M 133.0,1403.0 "
  />
  <path id="face18-interior"
 style="fill:none;stroke:#00FF00;stroke-width:1;stroke-miterlimit:4;stroke-dasharray:none;stroke-linejoin:round;stroke-linecap:round"
        d="M 133.0,1524.0 M 12.999999999999943,1524.0 M 12.999999999999943,1535.0000000000002 M 10.0,1535.0000000000002 M 10.0,1545.0 M 12.999999999999943,1545.0 M 12.999999999999943,1557.0 M 133.0,1557.0 M 133.0,1549.0 M 135.99999999999994,1549.0 M 135.99999999999994,1539.0 M 133.0,1539.0 "
  />
</svg>
