<?xml version="1.0" standalone="no"?>
<!DOCTYPE svg PUBLIC "-//W3C//DTD SVG 1.1//EN" "http://www.w3.org/Graphics/SVG/1.1/DTD/svg11.dtd">
<svg width="146.0mm" height="1567.0mm"
 viewBox="0 0 146.0 1567.0"
 xmlns="http://www.w3.org/2000/svg" version="1.1"
 xmlns:xlink="http://www.w3.org/1999/xlink">
<desc>Output from Flights of Ideas SVG Sketchup Plugin</desc>

  <g id="face0" fill="none" stroke="rgb(0,0,255)" stroke-width="1" stroke-miterlimit="4" stroke-dasharray="none" stroke-linejoin="round" stroke-linecap="round">
    <line x1="19.0" y1="52.9999999999991" x2="19.0" y2="13.0"/>
    <line x1="19.0" y1="13.0" x2="16.0" y2="13.0"/>
    <line x1="16.0" y1="13.0" x2="16.0" y2="10.0"/>
    <line x1="16.0" y1="10.0" x2="10.0" y2="10.0"/>
    <line x1="10.0" y1="10.0" x2="10.0" y2="124.0"/>
    <line x1="10.0" y1="124.0" x2="19.0" y2="124.0"/>
    <line x1="19.0" y1="124.0" x2="19.0" y2="108.999999999998"/>
    <line x1="19.0" y1="108.999999999998" x2="16.0" y2="108.999999999998"/>
    <line x1="16.0" y1="108.999999999998" x2="16.0" y2="105.999999999998"/>
    <line x1="16.0" y1="105.999999999998" x2="19.0" y2="105.999999999998"/>
    <line x1="19.0" y1="105.999999999998" x2="19.0" y2="62.9999999999992"/>
    <line x1="19.0" y1="62.9999999999992" x2="16.0" y2="62.9999999999992"/>
    <line x1="16.0" y1="62.9999999999992" x2="16.0" y2="52.9999999999991"/>
    <line x1="16.0" y1="52.9999999999991" x2="19.0" y2="52.9999999999991"/>
  </g>
  <g id="face1" fill="none" stroke="rgb(0,0,255)" stroke-width="1" stroke-miterlimit="4" stroke-dasharray="none" stroke-linejoin="round" stroke-linecap="round">
    <line x1="13.0" y1="159.0" x2="133.0" y2="159.0"/>
    <line x1="133.0" y1="159.0" x2="133.0" y2="149.0"/>
    <line x1="133.0" y1="149.0" x2="136.0" y2="149.0"/>
    <line x1="136.0" y1="149.0" x2="136.0" y2="144.0"/>
    <line x1="136.0" y1="144.0" x2="133.0" y2="144.0"/>
    <line x1="133.0" y1="144.0" x2="133.0" y2="134.0"/>
    <line x1="133.0" y1="134.0" x2="13.0" y2="134.0"/>
    <line x1="13.0" y1="134.0" x2="13.0" y2="144.0"/>
    <line x1="13.0" y1="144.0" x2="10.0" y2="144.0"/>
    <line x1="10.0" y1="144.0" x2="10.0" y2="149.0"/>
    <line x1="10.0" y1="149.0" x2="13.0" y2="149.0"/>
    <line x1="13.0" y1="149.0" x2="13.0" y2="159.0"/>
  </g>
  <g id="face2" fill="none" stroke="rgb(0,0,255)" stroke-width="1" stroke-miterlimit="4" stroke-dasharray="none" stroke-linejoin="round" stroke-linecap="round">
    <line x1="127.0" y1="193.0" x2="127.0" y2="187.0"/>
    <line x1="127.0" y1="187.0" x2="122.0" y2="187.0"/>
    <line x1="122.0" y1="187.0" x2="122.0" y2="169.0"/>
    <line x1="122.0" y1="169.0" x2="117.0" y2="169.0"/>
    <line x1="117.0" y1="169.0" x2="117.0" y2="187.0"/>
    <line x1="117.0" y1="187.0" x2="112.0" y2="187.0"/>
    <line x1="112.0" y1="187.0" x2="112.0" y2="169.0"/>
    <line x1="112.0" y1="169.0" x2="107.0" y2="169.0"/>
    <line x1="107.0" y1="169.0" x2="107.0" y2="187.0"/>
    <line x1="107.0" y1="187.0" x2="102.0" y2="187.0"/>
    <line x1="102.0" y1="187.0" x2="102.0" y2="169.0"/>
    <line x1="102.0" y1="169.0" x2="97.0000000000001" y2="169.0"/>
    <line x1="97.0000000000001" y1="169.0" x2="97.0000000000001" y2="187.0"/>
    <line x1="97.0000000000001" y1="187.0" x2="92.0" y2="187.0"/>
    <line x1="92.0" y1="187.0" x2="92.0" y2="169.0"/>
    <line x1="92.0" y1="169.0" x2="87.0" y2="169.0"/>
    <line x1="87.0" y1="169.0" x2="87.0" y2="187.0"/>
    <line x1="87.0" y1="187.0" x2="82.0000000000001" y2="187.0"/>
    <line x1="82.0000000000001" y1="187.0" x2="82.0000000000001" y2="169.0"/>
    <line x1="82.0000000000001" y1="169.0" x2="77.0" y2="169.0"/>
    <line x1="77.0" y1="169.0" x2="77.0" y2="187.0"/>
    <line x1="77.0" y1="187.0" x2="72.0" y2="187.0"/>
    <line x1="72.0" y1="187.0" x2="72.0" y2="169.0"/>
    <line x1="72.0" y1="169.0" x2="67.0" y2="169.0"/>
    <line x1="67.0" y1="169.0" x2="67.0" y2="187.0"/>
    <line x1="67.0" y1="187.0" x2="62.0" y2="187.0"/>
    <line x1="62.0" y1="187.0" x2="62.0" y2="169.0"/>
    <line x1="62.0" y1="169.0" x2="57.0" y2="169.0"/>
    <line x1="57.0" y1="169.0" x2="57.0" y2="187.0"/>
    <line x1="57.0" y1="187.0" x2="52.0" y2="187.0"/>
    <line x1="52.0" y1="187.0" x2="52.0" y2="169.0"/>
    <line x1="52.0" y1="169.0" x2="47.0" y2="169.0"/>
    <line x1="47.0" y1="169.0" x2="47.0" y2="187.0"/>
    <line x1="47.0" y1="187.0" x2="42.0" y2="187.0"/>
    <line x1="42.0" y1="187.0" x2="42.0" y2="169.0"/>
    <line x1="42.0" y1="169.0" x2="37.0" y2="169.0"/>
    <line x1="37.0" y1="169.0" x2="37.0" y2="187.0"/>
    <line x1="37.0" y1="187.0" x2="32.0" y2="187.0"/>
    <line x1="32.0" y1="187.0" x2="32.0" y2="169.0"/>
    <line x1="32.0" y1="169.0" x2="27.0" y2="169.0"/>
    <line x1="27.0" y1="169.0" x2="27.0" y2="187.0"/>
    <line x1="27.0" y1="187.0" x2="22.0" y2="187.0"/>
    <line x1="22.0" y1="187.0" x2="22.0" y2="169.0"/>
    <line x1="22.0" y1="169.0" x2="17.0" y2="169.0"/>
    <line x1="17.0" y1="169.0" x2="17.0" y2="187.0"/>
    <line x1="17.0" y1="187.0" x2="13.0000000000001" y2="187.0"/>
    <line x1="13.0000000000001" y1="187.0" x2="13.0" y2="193.0"/>
    <line x1="13.0" y1="193.0" x2="10.0" y2="193.0"/>
    <line x1="10.0" y1="193.0" x2="10.0" y2="196.0"/>
    <line x1="10.0" y1="196.0" x2="130.0" y2="196.0"/>
    <line x1="130.0" y1="196.0" x2="130.0" y2="193.0"/>
    <line x1="130.0" y1="193.0" x2="127.0" y2="193.0"/>
  </g>
  <g id="face3" fill="none" stroke="rgb(0,0,255)" stroke-width="1" stroke-miterlimit="4" stroke-dasharray="none" stroke-linejoin="round" stroke-linecap="round">
    <line x1="10.0" y1="206.0" x2="10.0" y2="242.0"/>
    <line x1="10.0" y1="242.0" x2="13.0" y2="242.0"/>
    <line x1="13.0" y1="242.0" x2="13.0" y2="356.0"/>
    <line x1="13.0" y1="356.0" x2="10.0" y2="356.0"/>
    <line x1="10.0" y1="356.0" x2="10.0" y2="392.0"/>
    <line x1="10.0" y1="392.0" x2="76.0000000000001" y2="392.0"/>
    <line x1="76.0000000000001" y1="392.0" x2="76.0000000000001" y2="356.0"/>
    <line x1="76.0000000000001" y1="356.0" x2="48.0000000000001" y2="356.0"/>
    <line x1="48.0000000000001" y1="356.0" x2="48.0000000000001" y2="242.0"/>
    <line x1="48.0000000000001" y1="242.0" x2="76.0000000000001" y2="242.0"/>
    <line x1="76.0000000000001" y1="242.0" x2="76.0" y2="206.0"/>
    <line x1="76.0" y1="206.0" x2="10.0" y2="206.0"/>
    <line x1="50.0000000000001" y1="212.0" x2="30.0" y2="212.0"/>
    <line x1="30.0" y1="212.0" x2="30.0" y2="209.0"/>
    <line x1="30.0" y1="209.0" x2="50.0000000000001" y2="209.0"/>
    <line x1="50.0000000000001" y1="209.0" x2="50.0000000000001" y2="212.0"/>
    <line x1="60.0" y1="239.0" x2="55.0" y2="239.0"/>
    <line x1="55.0" y1="239.0" x2="55.0" y2="236.0"/>
    <line x1="55.0" y1="236.0" x2="60.0" y2="236.0"/>
    <line x1="60.0" y1="236.0" x2="60.0" y2="239.0"/>
    <line x1="45.0" y1="251.0" x2="45.0" y2="261.0"/>
    <line x1="45.0" y1="261.0" x2="42.0000000000001" y2="261.0"/>
    <line x1="42.0000000000001" y1="261.0" x2="42.0000000000001" y2="251.0"/>
    <line x1="42.0000000000001" y1="251.0" x2="45.0" y2="251.0"/>
    <line x1="42.0000000000001" y1="347.0" x2="42.0000000000001" y2="337.0"/>
    <line x1="42.0000000000001" y1="337.0" x2="45.0" y2="337.0"/>
    <line x1="45.0" y1="337.0" x2="45.0" y2="347.0"/>
    <line x1="45.0" y1="347.0" x2="42.0000000000001" y2="347.0"/>
    <line x1="60.0" y1="362.0" x2="55.0" y2="362.0"/>
    <line x1="55.0" y1="362.0" x2="55.0" y2="359.0"/>
    <line x1="55.0" y1="359.0" x2="60.0" y2="359.0"/>
    <line x1="60.0" y1="359.0" x2="60.0" y2="362.0"/>
    <line x1="50.0000000000001" y1="386.0" x2="50.0000000000001" y2="389.0"/>
    <line x1="50.0000000000001" y1="389.0" x2="30.0000000000001" y2="389.0"/>
    <line x1="30.0000000000001" y1="389.0" x2="30.0" y2="386.0"/>
    <line x1="30.0" y1="386.0" x2="50.0000000000001" y2="386.0"/>
    <line x1="70.0" y1="231.0" x2="70.0" y2="221.0"/>
    <line x1="70.0" y1="221.0" x2="73.0000000000001" y2="221.0"/>
    <line x1="73.0000000000001" y1="221.0" x2="73.0000000000001" y2="231.0"/>
    <line x1="73.0000000000001" y1="231.0" x2="70.0" y2="231.0"/>
    <line x1="70.0" y1="381.0" x2="70.0" y2="371.0"/>
    <line x1="70.0" y1="371.0" x2="73.0000000000001" y2="371.0"/>
    <line x1="73.0000000000001" y1="371.0" x2="73.0000000000001" y2="381.0"/>
    <line x1="73.0000000000001" y1="381.0" x2="70.0" y2="381.0"/>
    <line x1="21.5851854342774" y1="226.647047612757" x2="21.5" y2="226.0"/>
    <line x1="21.5" y1="226.0" x2="21.5851854342774" y2="225.352952387244"/>
    <line x1="21.5851854342774" y1="225.352952387244" x2="21.834936490539" y2="224.75"/>
    <line x1="21.834936490539" y1="224.75" x2="22.2322330470337" y2="224.232233047034"/>
    <line x1="22.2322330470337" y1="224.232233047034" x2="22.75" y2="223.834936490539"/>
    <line x1="22.75" y1="223.834936490539" x2="23.3529523872438" y2="223.585185434278"/>
    <line x1="23.3529523872438" y1="223.585185434278" x2="24.0000000000001" y2="223.5"/>
    <line x1="24.0000000000001" y1="223.5" x2="24.6470476127564" y2="223.585185434278"/>
    <line x1="24.6470476127564" y1="223.585185434278" x2="25.2500000000001" y2="223.834936490539"/>
    <line x1="25.2500000000001" y1="223.834936490539" x2="25.7677669529664" y2="224.232233047034"/>
    <line x1="25.7677669529664" y1="224.232233047034" x2="26.1650635094612" y2="224.75"/>
    <line x1="26.1650635094612" y1="224.75" x2="26.4148145657227" y2="225.352952387244"/>
    <line x1="26.4148145657227" y1="225.352952387244" x2="26.5000000000001" y2="226.0"/>
    <line x1="26.5000000000001" y1="226.0" x2="26.4148145657227" y2="226.647047612757"/>
    <line x1="26.4148145657227" y1="226.647047612757" x2="26.1650635094612" y2="227.25"/>
    <line x1="26.1650635094612" y1="227.25" x2="25.7677669529664" y2="227.767766952967"/>
    <line x1="25.7677669529664" y1="227.767766952967" x2="25.2500000000001" y2="228.165063509461"/>
    <line x1="25.2500000000001" y1="228.165063509461" x2="24.6470476127564" y2="228.414814565723"/>
    <line x1="24.6470476127564" y1="228.414814565723" x2="24.0000000000001" y2="228.5"/>
    <line x1="24.0000000000001" y1="228.5" x2="23.3529523872438" y2="228.414814565723"/>
    <line x1="23.3529523872438" y1="228.414814565723" x2="22.75" y2="228.165063509461"/>
    <line x1="22.75" y1="228.165063509461" x2="22.2322330470337" y2="227.767766952967"/>
    <line x1="22.2322330470337" y1="227.767766952967" x2="21.834936490539" y2="227.25"/>
    <line x1="21.834936490539" y1="227.25" x2="21.5851854342774" y2="226.647047612757"/>
  </g>
  <g id="face4" fill="none" stroke="rgb(0,0,255)" stroke-width="1" stroke-miterlimit="4" stroke-dasharray="none" stroke-linejoin="round" stroke-linecap="round">
    <line x1="13.0000000000001" y1="516.0" x2="39.0000000000001" y2="516.0"/>
    <line x1="39.0000000000001" y1="516.0" x2="39.0000000000001" y2="513.0"/>
    <line x1="39.0000000000001" y1="513.0" x2="42.0000000000002" y2="513.0"/>
    <line x1="42.0000000000002" y1="513.0" x2="42.0000000000002" y2="405.0"/>
    <line x1="42.0000000000002" y1="405.0" x2="39.0000000000001" y2="405.0"/>
    <line x1="39.0000000000001" y1="405.0" x2="39.0000000000001" y2="402.0"/>
    <line x1="39.0000000000001" y1="402.0" x2="10.0000000000001" y2="402.0"/>
    <line x1="10.0000000000001" y1="402.0" x2="10.0000000000001" y2="405.0"/>
    <line x1="10.0000000000001" y1="405.0" x2="13.0000000000001" y2="405.0"/>
    <line x1="13.0000000000001" y1="405.0" x2="13.0000000000001" y2="444.999999999999"/>
    <line x1="13.0000000000001" y1="444.999999999999" x2="10.0" y2="444.999999999999"/>
    <line x1="10.0" y1="444.999999999999" x2="10.0" y2="454.999999999999"/>
    <line x1="10.0" y1="454.999999999999" x2="13.0000000000001" y2="454.999999999999"/>
    <line x1="13.0000000000001" y1="454.999999999999" x2="13.0000000000001" y2="516.0"/>
  </g>
  <g id="face5" fill="none" stroke="rgb(0,0,255)" stroke-width="1" stroke-miterlimit="4" stroke-dasharray="none" stroke-linejoin="round" stroke-linecap="round">
    <line x1="18.9999999999999" y1="568.999999999999" x2="18.9999999999999" y2="529.0"/>
    <line x1="18.9999999999999" y1="529.0" x2="15.9999999999999" y2="529.0"/>
    <line x1="15.9999999999999" y1="529.0" x2="15.9999999999999" y2="526.0"/>
    <line x1="15.9999999999999" y1="526.0" x2="10.0" y2="526.0"/>
    <line x1="10.0" y1="526.0" x2="10.0" y2="640.0"/>
    <line x1="10.0" y1="640.0" x2="18.9999999999999" y2="640.0"/>
    <line x1="18.9999999999999" y1="640.0" x2="18.9999999999999" y2="624.999999999999"/>
    <line x1="18.9999999999999" y1="624.999999999999" x2="16.0" y2="624.999999999999"/>
    <line x1="16.0" y1="624.999999999999" x2="16.0" y2="621.999999999999"/>
    <line x1="16.0" y1="621.999999999999" x2="18.9999999999999" y2="621.999999999999"/>
    <line x1="18.9999999999999" y1="621.999999999999" x2="18.9999999999999" y2="578.999999999999"/>
    <line x1="18.9999999999999" y1="578.999999999999" x2="15.9999999999999" y2="578.999999999999"/>
    <line x1="15.9999999999999" y1="578.999999999999" x2="15.9999999999999" y2="568.999999999999"/>
    <line x1="15.9999999999999" y1="568.999999999999" x2="18.9999999999999" y2="568.999999999999"/>
  </g>
  <g id="face6" fill="none" stroke="rgb(0,0,255)" stroke-width="1" stroke-miterlimit="4" stroke-dasharray="none" stroke-linejoin="round" stroke-linecap="round">
    <line x1="20.0" y1="656.0" x2="10.0" y2="656.0"/>
    <line x1="10.0" y1="656.0" x2="10.0" y2="659.0"/>
    <line x1="10.0" y1="659.0" x2="30.0" y2="659.0"/>
    <line x1="30.0" y1="659.0" x2="30.0" y2="650.0"/>
    <line x1="30.0" y1="650.0" x2="14.9999999999999" y2="650.0"/>
    <line x1="14.9999999999999" y1="650.0" x2="14.9999999999999" y2="653.0"/>
    <line x1="14.9999999999999" y1="653.0" x2="20.0" y2="653.0"/>
    <line x1="20.0" y1="653.0" x2="20.0" y2="656.0"/>
  </g>
  <g id="face7" fill="none" stroke="rgb(0,0,255)" stroke-width="1" stroke-miterlimit="4" stroke-dasharray="none" stroke-linejoin="round" stroke-linecap="round">
    <line x1="13.0" y1="694.0" x2="133.0" y2="694.0"/>
    <line x1="133.0" y1="694.0" x2="133.0" y2="684.0"/>
    <line x1="133.0" y1="684.0" x2="136.0" y2="684.0"/>
    <line x1="136.0" y1="684.0" x2="136.0" y2="679.0"/>
    <line x1="136.0" y1="679.0" x2="133.0" y2="679.0"/>
    <line x1="133.0" y1="679.0" x2="133.0" y2="669.0"/>
    <line x1="133.0" y1="669.0" x2="13.0" y2="669.0"/>
    <line x1="13.0" y1="669.0" x2="13.0" y2="679.0"/>
    <line x1="13.0" y1="679.0" x2="10.0" y2="679.0"/>
    <line x1="10.0" y1="679.0" x2="10.0000000000001" y2="684.0"/>
    <line x1="10.0000000000001" y1="684.0" x2="13.0" y2="684.0"/>
    <line x1="13.0" y1="684.0" x2="13.0" y2="694.0"/>
  </g>
  <g id="face8" fill="none" stroke="rgb(0,0,255)" stroke-width="1" stroke-miterlimit="4" stroke-dasharray="none" stroke-linejoin="round" stroke-linecap="round">
    <line x1="20.0" y1="710.0" x2="10.0" y2="710.0"/>
    <line x1="10.0" y1="710.0" x2="10.0" y2="713.0"/>
    <line x1="10.0" y1="713.0" x2="30.0" y2="713.0"/>
    <line x1="30.0" y1="713.0" x2="30.0" y2="704.0"/>
    <line x1="30.0" y1="704.0" x2="14.9999999999999" y2="704.0"/>
    <line x1="14.9999999999999" y1="704.0" x2="14.9999999999999" y2="707.0"/>
    <line x1="14.9999999999999" y1="707.0" x2="20.0" y2="707.0"/>
    <line x1="20.0" y1="707.0" x2="20.0" y2="710.0"/>
  </g>
  <g id="face9" fill="none" stroke="rgb(0,0,255)" stroke-width="1" stroke-miterlimit="4" stroke-dasharray="none" stroke-linejoin="round" stroke-linecap="round">
    <line x1="20.0" y1="729.0" x2="10.0" y2="729.0"/>
    <line x1="10.0" y1="729.0" x2="10.0" y2="732.0"/>
    <line x1="10.0" y1="732.0" x2="30.0" y2="732.0"/>
    <line x1="30.0" y1="732.0" x2="30.0" y2="723.0"/>
    <line x1="30.0" y1="723.0" x2="15.0" y2="723.0"/>
    <line x1="15.0" y1="723.0" x2="15.0" y2="726.0"/>
    <line x1="15.0" y1="726.0" x2="20.0" y2="726.0"/>
    <line x1="20.0" y1="726.0" x2="20.0" y2="729.0"/>
  </g>
  <g id="face10" fill="none" stroke="rgb(0,0,255)" stroke-width="1" stroke-miterlimit="4" stroke-dasharray="none" stroke-linejoin="round" stroke-linecap="round">
    <line x1="133.0" y1="742.0" x2="13.0" y2="742.0"/>
    <line x1="13.0" y1="742.0" x2="13.0" y2="757.0"/>
    <line x1="13.0" y1="757.0" x2="10.0" y2="757.0"/>
    <line x1="10.0" y1="757.0" x2="10.0" y2="767.0"/>
    <line x1="10.0" y1="767.0" x2="13.0" y2="767.0"/>
    <line x1="13.0" y1="767.0" x2="13.0" y2="843.0"/>
    <line x1="13.0" y1="843.0" x2="10.0" y2="843.0"/>
    <line x1="10.0" y1="843.0" x2="10.0" y2="853.0"/>
    <line x1="10.0" y1="853.0" x2="13.0" y2="853.0"/>
    <line x1="13.0" y1="853.0" x2="13.0" y2="868.0"/>
    <line x1="13.0" y1="868.0" x2="133.0" y2="868.0"/>
    <line x1="133.0" y1="868.0" x2="133.0" y2="853.0"/>
    <line x1="133.0" y1="853.0" x2="136.0" y2="853.0"/>
    <line x1="136.0" y1="853.0" x2="136.0" y2="843.0"/>
    <line x1="136.0" y1="843.0" x2="133.0" y2="843.0"/>
    <line x1="133.0" y1="843.0" x2="133.0" y2="767.0"/>
    <line x1="133.0" y1="767.0" x2="136.0" y2="767.0"/>
    <line x1="136.0" y1="767.0" x2="136.0" y2="757.0"/>
    <line x1="136.0" y1="757.0" x2="133.0" y2="757.0"/>
    <line x1="133.0" y1="757.0" x2="133.0" y2="742.0"/>
  </g>
  <g id="face11" fill="none" stroke="rgb(0,0,255)" stroke-width="1" stroke-miterlimit="4" stroke-dasharray="none" stroke-linejoin="round" stroke-linecap="round">
    <line x1="13.0000000000002" y1="992.0" x2="39.0000000000001" y2="992.0"/>
    <line x1="39.0000000000001" y1="992.0" x2="39.0000000000001" y2="989.0"/>
    <line x1="39.0000000000001" y1="989.0" x2="42.0000000000002" y2="989.0"/>
    <line x1="42.0000000000002" y1="989.0" x2="42.0000000000002" y2="881.0"/>
    <line x1="42.0000000000002" y1="881.0" x2="39.0000000000002" y2="881.0"/>
    <line x1="39.0000000000002" y1="881.0" x2="39.0000000000001" y2="878.0"/>
    <line x1="39.0000000000001" y1="878.0" x2="10.0000000000002" y2="878.0"/>
    <line x1="10.0000000000002" y1="878.0" x2="10.0000000000002" y2="881.0"/>
    <line x1="10.0000000000002" y1="881.0" x2="13.0000000000002" y2="881.0"/>
    <line x1="13.0000000000002" y1="881.0" x2="13.0000000000002" y2="920.999999999999"/>
    <line x1="13.0000000000002" y1="920.999999999999" x2="10.0000000000001" y2="920.999999999999"/>
    <line x1="10.0000000000001" y1="920.999999999999" x2="10.0" y2="930.999999999999"/>
    <line x1="10.0" y1="930.999999999999" x2="13.0000000000001" y2="930.999999999999"/>
    <line x1="13.0000000000001" y1="930.999999999999" x2="13.0000000000002" y2="992.0"/>
  </g>
  <g id="face12" fill="none" stroke="rgb(0,0,255)" stroke-width="1" stroke-miterlimit="4" stroke-dasharray="none" stroke-linejoin="round" stroke-linecap="round">
    <line x1="133.0" y1="1002.0" x2="13.0" y2="1002.0"/>
    <line x1="13.0" y1="1002.0" x2="13.0" y2="1022.0"/>
    <line x1="13.0" y1="1022.0" x2="10.0" y2="1022.0"/>
    <line x1="10.0" y1="1022.0" x2="10.0" y2="1042.0"/>
    <line x1="10.0" y1="1042.0" x2="13.0" y2="1042.0"/>
    <line x1="13.0" y1="1042.0" x2="13.0000000000001" y2="1062.0"/>
    <line x1="13.0000000000001" y1="1062.0" x2="133.0" y2="1062.0"/>
    <line x1="133.0" y1="1062.0" x2="133.0" y2="1042.0"/>
    <line x1="133.0" y1="1042.0" x2="136.0" y2="1042.0"/>
    <line x1="136.0" y1="1042.0" x2="136.0" y2="1022.0"/>
    <line x1="136.0" y1="1022.0" x2="133.0" y2="1022.0"/>
    <line x1="133.0" y1="1022.0" x2="133.0" y2="1002.0"/>
  </g>
  <g id="face13" fill="none" stroke="rgb(0,0,255)" stroke-width="1" stroke-miterlimit="4" stroke-dasharray="none" stroke-linejoin="round" stroke-linecap="round">
    <line x1="133.0" y1="1072.0" x2="13.0" y2="1072.0"/>
    <line x1="13.0" y1="1072.0" x2="13.0" y2="1083.0"/>
    <line x1="13.0" y1="1083.0" x2="10.0" y2="1083.0"/>
    <line x1="10.0" y1="1083.0" x2="10.0" y2="1093.0"/>
    <line x1="10.0" y1="1093.0" x2="13.0" y2="1093.0"/>
    <line x1="13.0" y1="1093.0" x2="13.0" y2="1105.0"/>
    <line x1="13.0" y1="1105.0" x2="133.0" y2="1105.0"/>
    <line x1="133.0" y1="1105.0" x2="133.0" y2="1097.0"/>
    <line x1="133.0" y1="1097.0" x2="136.0" y2="1097.0"/>
    <line x1="136.0" y1="1097.0" x2="136.0" y2="1087.0"/>
    <line x1="136.0" y1="1087.0" x2="133.0" y2="1087.0"/>
    <line x1="133.0" y1="1087.0" x2="133.0" y2="1072.0"/>
  </g>
  <g id="face14" fill="none" stroke="rgb(0,0,255)" stroke-width="1" stroke-miterlimit="4" stroke-dasharray="none" stroke-linejoin="round" stroke-linecap="round">
    <line x1="20.0" y1="1121.0" x2="10.0" y2="1121.0"/>
    <line x1="10.0" y1="1121.0" x2="10.0" y2="1124.0"/>
    <line x1="10.0" y1="1124.0" x2="30.0" y2="1124.0"/>
    <line x1="30.0" y1="1124.0" x2="30.0" y2="1115.0"/>
    <line x1="30.0" y1="1115.0" x2="14.9999999999999" y2="1115.0"/>
    <line x1="14.9999999999999" y1="1115.0" x2="14.9999999999999" y2="1118.0"/>
    <line x1="14.9999999999999" y1="1118.0" x2="20.0" y2="1118.0"/>
    <line x1="20.0" y1="1118.0" x2="20.0" y2="1121.0"/>
  </g>
  <g id="face15" fill="none" stroke="rgb(0,0,255)" stroke-width="1" stroke-miterlimit="4" stroke-dasharray="none" stroke-linejoin="round" stroke-linecap="round">
    <line x1="10.0" y1="1284.0" x2="10.0" y2="1320.0"/>
    <line x1="10.0" y1="1320.0" x2="76.0000000000001" y2="1320.0"/>
    <line x1="76.0000000000001" y1="1320.0" x2="76.0000000000001" y2="1284.0"/>
    <line x1="76.0000000000001" y1="1284.0" x2="73.0" y2="1284.0"/>
    <line x1="73.0" y1="1284.0" x2="73.0" y2="1170.0"/>
    <line x1="73.0" y1="1170.0" x2="76.0000000000001" y2="1170.0"/>
    <line x1="76.0000000000001" y1="1170.0" x2="76.0000000000001" y2="1134.0"/>
    <line x1="76.0000000000001" y1="1134.0" x2="10.0" y2="1134.0"/>
    <line x1="10.0" y1="1134.0" x2="10.0" y2="1170.0"/>
    <line x1="10.0" y1="1170.0" x2="38.0000000000001" y2="1170.0"/>
    <line x1="38.0000000000001" y1="1170.0" x2="38.0000000000001" y2="1284.0"/>
    <line x1="38.0000000000001" y1="1284.0" x2="10.0" y2="1284.0"/>
    <line x1="56.0000000000001" y1="1140.0" x2="36.0000000000001" y2="1140.0"/>
    <line x1="36.0000000000001" y1="1140.0" x2="35.9999999999999" y2="1137.0"/>
    <line x1="35.9999999999999" y1="1137.0" x2="56.0000000000001" y2="1137.0"/>
    <line x1="56.0000000000001" y1="1137.0" x2="56.0000000000001" y2="1140.0"/>
    <line x1="31.0000000000001" y1="1167.0" x2="26.0000000000001" y2="1167.0"/>
    <line x1="26.0000000000001" y1="1167.0" x2="26.0000000000001" y2="1164.0"/>
    <line x1="26.0000000000001" y1="1164.0" x2="31.0000000000001" y2="1164.0"/>
    <line x1="31.0000000000001" y1="1164.0" x2="31.0000000000001" y2="1167.0"/>
    <line x1="41.0" y1="1189.0" x2="41.0" y2="1179.0"/>
    <line x1="41.0" y1="1179.0" x2="43.9999999999999" y2="1179.0"/>
    <line x1="43.9999999999999" y1="1179.0" x2="44.0000000000001" y2="1189.0"/>
    <line x1="44.0000000000001" y1="1189.0" x2="41.0" y2="1189.0"/>
    <line x1="43.9999999999999" y1="1265.0" x2="43.9999999999999" y2="1275.0"/>
    <line x1="43.9999999999999" y1="1275.0" x2="41.0" y2="1275.0"/>
    <line x1="41.0" y1="1275.0" x2="41.0" y2="1265.0"/>
    <line x1="41.0" y1="1265.0" x2="43.9999999999999" y2="1265.0"/>
    <line x1="31.0" y1="1290.0" x2="26.0000000000001" y2="1290.0"/>
    <line x1="26.0000000000001" y1="1290.0" x2="26.0000000000001" y2="1287.0"/>
    <line x1="26.0000000000001" y1="1287.0" x2="31.0000000000001" y2="1287.0"/>
    <line x1="31.0000000000001" y1="1287.0" x2="31.0" y2="1290.0"/>
    <line x1="35.9999999999999" y1="1317.0" x2="35.9999999999999" y2="1314.0"/>
    <line x1="35.9999999999999" y1="1314.0" x2="56.0" y2="1314.0"/>
    <line x1="56.0" y1="1314.0" x2="56.0000000000001" y2="1317.0"/>
    <line x1="56.0000000000001" y1="1317.0" x2="35.9999999999999" y2="1317.0"/>
    <line x1="16.0" y1="1149.0" x2="16.0" y2="1159.0"/>
    <line x1="16.0" y1="1159.0" x2="12.9999999999999" y2="1159.0"/>
    <line x1="12.9999999999999" y1="1159.0" x2="13.0000000000001" y2="1149.0"/>
    <line x1="13.0000000000001" y1="1149.0" x2="16.0" y2="1149.0"/>
    <line x1="16.0" y1="1299.0" x2="16.0" y2="1309.0"/>
    <line x1="16.0" y1="1309.0" x2="13.0000000000001" y2="1309.0"/>
    <line x1="13.0000000000001" y1="1309.0" x2="13.0000000000001" y2="1299.0"/>
    <line x1="13.0000000000001" y1="1299.0" x2="16.0" y2="1299.0"/>
    <line x1="64.4148145657227" y1="1153.35295238724" x2="64.5000000000001" y2="1154.0"/>
    <line x1="64.5000000000001" y1="1154.0" x2="64.4148145657226" y2="1154.64704761276"/>
    <line x1="64.4148145657226" y1="1154.64704761276" x2="64.1650635094611" y2="1155.25"/>
    <line x1="64.1650635094611" y1="1155.25" x2="63.7677669529664" y2="1155.76776695297"/>
    <line x1="63.7677669529664" y1="1155.76776695297" x2="63.25" y2="1156.16506350946"/>
    <line x1="63.25" y1="1156.16506350946" x2="62.6470476127563" y2="1156.41481456572"/>
    <line x1="62.6470476127563" y1="1156.41481456572" x2="62.0" y2="1156.5"/>
    <line x1="62.0" y1="1156.5" x2="61.3529523872438" y2="1156.41481456572"/>
    <line x1="61.3529523872438" y1="1156.41481456572" x2="60.7499999999999" y2="1156.16506350946"/>
    <line x1="60.7499999999999" y1="1156.16506350946" x2="60.2322330470337" y2="1155.76776695297"/>
    <line x1="60.2322330470337" y1="1155.76776695297" x2="59.834936490539" y2="1155.25"/>
    <line x1="59.834936490539" y1="1155.25" x2="59.5851854342774" y2="1154.64704761276"/>
    <line x1="59.5851854342774" y1="1154.64704761276" x2="59.5000000000001" y2="1154.0"/>
    <line x1="59.5000000000001" y1="1154.0" x2="59.5851854342774" y2="1153.35295238724"/>
    <line x1="59.5851854342774" y1="1153.35295238724" x2="59.8349364905388" y2="1152.75"/>
    <line x1="59.8349364905388" y1="1152.75" x2="60.2322330470337" y2="1152.23223304703"/>
    <line x1="60.2322330470337" y1="1152.23223304703" x2="60.75" y2="1151.83493649054"/>
    <line x1="60.75" y1="1151.83493649054" x2="61.3529523872438" y2="1151.58518543428"/>
    <line x1="61.3529523872438" y1="1151.58518543428" x2="62.0" y2="1151.5"/>
    <line x1="62.0" y1="1151.5" x2="62.6470476127563" y2="1151.58518543428"/>
    <line x1="62.6470476127563" y1="1151.58518543428" x2="63.25" y2="1151.83493649054"/>
    <line x1="63.25" y1="1151.83493649054" x2="63.7677669529664" y2="1152.23223304703"/>
    <line x1="63.7677669529664" y1="1152.23223304703" x2="64.1650635094611" y2="1152.75"/>
    <line x1="64.1650635094611" y1="1152.75" x2="64.4148145657227" y2="1153.35295238724"/>
  </g>
  <g id="face16" fill="none" stroke="rgb(0,0,255)" stroke-width="1" stroke-miterlimit="4" stroke-dasharray="none" stroke-linejoin="round" stroke-linecap="round">
    <line x1="133.0" y1="1330.0" x2="13.0" y2="1330.0"/>
    <line x1="13.0" y1="1330.0" x2="13.0" y2="1350.0"/>
    <line x1="13.0" y1="1350.0" x2="10.0" y2="1350.0"/>
    <line x1="10.0" y1="1350.0" x2="10.0" y2="1370.0"/>
    <line x1="10.0" y1="1370.0" x2="13.0" y2="1370.0"/>
    <line x1="13.0" y1="1370.0" x2="13.0" y2="1390.0"/>
    <line x1="13.0" y1="1390.0" x2="133.0" y2="1390.0"/>
    <line x1="133.0" y1="1390.0" x2="133.0" y2="1370.0"/>
    <line x1="133.0" y1="1370.0" x2="136.0" y2="1370.0"/>
    <line x1="136.0" y1="1370.0" x2="136.0" y2="1350.0"/>
    <line x1="136.0" y1="1350.0" x2="133.0" y2="1350.0"/>
    <line x1="133.0" y1="1350.0" x2="133.0" y2="1330.0"/>
  </g>
  <g id="face17" fill="none" stroke="rgb(0,0,255)" stroke-width="1" stroke-miterlimit="4" stroke-dasharray="none" stroke-linejoin="round" stroke-linecap="round">
    <line x1="10.0" y1="1514.0" x2="130.0" y2="1514.0"/>
    <line x1="130.0" y1="1514.0" x2="130.0" y2="1511.0"/>
    <line x1="130.0" y1="1511.0" x2="127.0" y2="1511.0"/>
    <line x1="127.0" y1="1511.0" x2="127.0" y2="1403.0"/>
    <line x1="127.0" y1="1403.0" x2="130.0" y2="1403.0"/>
    <line x1="130.0" y1="1403.0" x2="130.0" y2="1400.0"/>
    <line x1="130.0" y1="1400.0" x2="10.0" y2="1400.0"/>
    <line x1="10.0" y1="1400.0" x2="10.0" y2="1403.0"/>
    <line x1="10.0" y1="1403.0" x2="13.0" y2="1403.0"/>
    <line x1="13.0" y1="1403.0" x2="13.0" y2="1511.0"/>
    <line x1="13.0" y1="1511.0" x2="10.0" y2="1511.0"/>
    <line x1="10.0" y1="1511.0" x2="10.0" y2="1514.0"/>
  </g>
  <g id="face18" fill="none" stroke="rgb(0,0,255)" stroke-width="1" stroke-miterlimit="4" stroke-dasharray="none" stroke-linejoin="round" stroke-linecap="round">
    <line x1="133.0" y1="1524.0" x2="12.9999999999999" y2="1524.0"/>
    <line x1="12.9999999999999" y1="1524.0" x2="12.9999999999999" y2="1535.0"/>
    <line x1="12.9999999999999" y1="1535.0" x2="10.0" y2="1535.0"/>
    <line x1="10.0" y1="1535.0" x2="10.0" y2="1545.0"/>
    <line x1="10.0" y1="1545.0" x2="12.9999999999999" y2="1545.0"/>
    <line x1="12.9999999999999" y1="1545.0" x2="12.9999999999999" y2="1557.0"/>
    <line x1="12.9999999999999" y1="1557.0" x2="133.0" y2="1557.0"/>
    <line x1="133.0" y1="1557.0" x2="133.0" y2="1549.0"/>
    <line x1="133.0" y1="1549.0" x2="136.0" y2="1549.0"/>
    <line x1="136.0" y1="1549.0" x2="136.0" y2="1539.0"/>
    <line x1="136.0" y1="1539.0" x2="133.0" y2="1539.0"/>
    <line x1="133.0" y1="1539.0" x2="133.0" y2="1524.0"/>
  </g>
</svg>
